<svg xmlns="http://www.w3.org/2000/svg" viewBox="0 0 32 32" fill="none" stroke="#5b6f8a" stroke-width="1.8" stroke-linecap="round" stroke-linejoin="round">
  <rect x="0" y="0" width="32" height="32" rx="6" ry="6" fill="#f7f3ed" stroke="none"/>
  <!-- brain outline -->
  <path d="M16 29V17"/>
  <!-- left hemisphere -->
  <path d="M16 17c-1-1-3-2-5-2-3 0-5.5 2-5.5 5s1.5 4 3 5"/>
  <path d="M11 15c-3-.5-5.5-2.5-5.5-5.5C5.5 6 8 4 11 4c1.5 0 3 .5 4 1.5"/>
  <path d="M8.5 20c-2-.5-3.5-2-3.5-4"/>
  <path d="M11 15c-1-2-.5-4 1-5.5"/>
  <!-- right hemisphere -->
  <path d="M16 17c1-1 3-2 5-2 3 0 5.5 2 5.5 5s-1.5 4-3 5"/>
  <path d="M21 15c3-.5 5.5-2.5 5.5-5.5C26.5 6 24 4 21 4c-1.5 0-3 .5-4 1.5"/>
  <path d="M23.5 20c2-.5 3.5-2 3.5-4"/>
  <path d="M21 15c1-2 .5-4-1-5.5"/>
  <!-- central fissure -->
  <path d="M16 5.5v11.5"/>
</svg>
