<?xml version="1.0" standalone="no"?>
<!DOCTYPE svg PUBLIC "-//W3C//DTD SVG 20010904//EN"
 "http://www.w3.org/TR/2001/REC-SVG-20010904/DTD/svg10.dtd">
<svg version="1.0" xmlns="http://www.w3.org/2000/svg"
 width="512.000000pt" height="512.000000pt" viewBox="0 0 512.000000 512.000000"
 preserveAspectRatio="xMidYMid meet">
<metadata>
Created by potrace 1.14, written by Peter Selinger 2001-2017
</metadata>
<g transform="translate(0.000000,512.000000) scale(0.100000,-0.100000)"
fill="#000000" stroke="none">
<path d="M0 5113 c0 -11 1263 -14 1625 -4 237 6 98 8 -662 9 -530 1 -963 -1
-963 -5z"/>
<path d="M2088 5113 c7 -3 16 -2 19 1 4 3 -2 6 -13 5 -11 0 -14 -3 -6 -6z"/>
<path d="M4703 5113 c15 -2 39 -2 55 0 15 2 2 4 -28 4 -30 0 -43 -2 -27 -4z"/>
<path d="M4800 5114 c25 -7 112 -278 113 -351 0 -18 5 -29 10 -26 5 3 6 -4 2
-16 -4 -12 -2 -21 4 -21 6 0 11 -5 11 -11 0 -5 -4 -8 -9 -5 -4 3 -6 -6 -3 -19
2 -14 7 -25 11 -25 4 0 6 -16 6 -35 -1 -19 2 -35 6 -35 7 0 10 -52 9 -161 -1
-25 4 -57 9 -71 9 -25 9 -26 -17 -18 -15 4 -67 24 -115 43 -91 37 -252 80
-436 116 -57 12 -107 21 -112 21 -14 0 -11 -17 4 -18 23 -2 46 -8 52 -14 3 -3
-14 -4 -37 -2 l-43 3 40 -10 c22 -6 53 -8 68 -5 15 3 26 2 23 -3 -6 -10 81
-24 95 -15 5 3 9 0 9 -5 0 -6 10 -11 23 -11 12 0 67 -11 121 -25 55 -13 104
-21 109 -18 6 3 7 1 3 -5 -5 -9 96 -50 144 -58 8 -2 16 -8 18 -13 2 -6 10 -11
17 -11 20 0 38 -38 42 -85 4 -63 -8 -195 -18 -189 -5 3 -9 -3 -9 -13 0 -10 -3
-29 -5 -43 -5 -22 -4 -23 4 -5 7 15 9 6 6 -35 -1 -30 -4 -57 -5 -60 -1 -3 -2
-9 -1 -13 2 -12 -19 -139 -26 -157 -4 -8 -5 -19 -4 -24 3 -16 -59 -257 -78
-299 -10 -23 -29 -70 -41 -104 -15 -42 -28 -63 -39 -63 -13 0 -13 -2 -2 -9 12
-7 11 -17 -5 -60 -10 -28 -24 -51 -31 -51 -7 0 -13 5 -13 11 0 5 5 7 12 3 8
-5 9 -2 4 11 -4 11 -10 38 -13 62 -4 28 -11 43 -20 43 -8 0 -12 4 -9 9 8 12
-4 42 -13 37 -4 -3 -13 9 -20 25 -22 50 -23 25 -2 -30 12 -28 24 -82 29 -120
9 -79 -5 -214 -21 -204 -6 3 -7 1 -3 -6 8 -13 -11 -81 -23 -81 -14 0 -31 -51
-25 -76 4 -15 2 -24 -6 -24 -6 0 -8 5 -5 10 3 6 3 10 -2 10 -12 -1 -45 -50
-33 -50 5 0 10 5 10 10 0 6 3 10 8 10 4 0 8 -27 9 -60 1 -36 -2 -58 -8 -55 -5
4 -9 1 -9 -4 0 -6 4 -11 9 -11 12 0 -30 -161 -46 -178 -7 -7 -14 -19 -14 -25
-3 -26 -5 -35 -33 -116 -16 -46 -43 -113 -61 -149 -18 -36 -31 -72 -27 -80 4
-11 1 -13 -7 -7 -10 6 -12 0 -6 -23 5 -25 -2 -48 -32 -109 -63 -127 -130 -246
-153 -271 -11 -12 -17 -22 -13 -22 4 0 -1 -7 -11 -15 -11 -8 -17 -15 -13 -15
18 0 -165 -238 -217 -283 -11 -10 -15 -15 -7 -11 9 4 12 3 7 -4 -4 -6 -13 -9
-21 -5 -8 3 -15 1 -16 -3 -4 -43 -40 -87 -65 -77 -6 2 -14 -3 -18 -13 -5 -14
-4 -15 9 -4 25 21 17 4 -15 -30 -16 -18 -30 -27 -30 -20 0 15 -68 -41 -69 -57
-1 -6 -5 -13 -10 -15 -5 -1 -29 -21 -53 -44 -24 -22 -47 -42 -53 -45 -5 -2 -9
-8 -7 -12 1 -5 -2 -6 -8 -2 -16 10 -40 -14 -33 -33 6 -15 4 -15 -9 -4 -14 11
-18 10 -28 -7 -6 -12 -8 -21 -5 -21 3 0 1 -9 -5 -21 -7 -11 -14 -18 -17 -15
-3 3 0 12 7 21 21 25 0 17 -35 -14 -19 -16 -31 -32 -28 -35 4 -3 0 -6 -8 -6
-8 0 -50 -27 -93 -60 -44 -33 -85 -60 -91 -60 -7 0 -18 -7 -25 -15 -7 -8 -16
-13 -20 -10 -5 3 -12 0 -16 -6 -4 -8 -3 -9 4 -5 7 4 12 2 12 -5 0 -6 -8 -9
-20 -6 -11 3 -23 0 -27 -5 -3 -7 -1 -8 5 -4 7 4 12 6 12 3 0 -7 -62 -49 -79
-52 -10 -2 -35 -8 -57 -14 -107 -30 -320 -54 -434 -49 -123 5 -129 3 -35 -12
l60 -9 -70 5 c-95 7 -137 13 -144 20 -3 4 3 5 15 2 12 -3 31 2 42 11 l22 16
-25 1 c-14 1 -22 -2 -19 -7 7 -11 -92 -3 -156 13 -25 6 -56 20 -70 30 l-25 20
28 -6 c15 -3 38 -8 52 -11 14 -3 25 -2 25 3 0 5 -6 9 -12 10 -40 5 -57 10 -90
26 -41 20 -51 31 -17 21 15 -5 19 -4 15 4 -4 6 -2 11 4 11 6 0 8 5 4 12 -7 10
63 -28 76 -41 11 -12 49 -16 165 -16 68 0 123 -4 127 -10 5 -7 8 -6 8 0 0 6
14 12 32 13 17 1 36 9 42 16 13 16 103 34 153 30 22 -1 32 1 24 5 -10 6 -10
10 -1 16 6 4 22 -2 34 -14 20 -19 25 -20 35 -7 10 12 9 14 -8 9 -15 -4 -21 -1
-21 11 0 9 5 16 11 16 5 0 7 -5 3 -11 -5 -8 -1 -8 14 0 12 6 23 15 27 20 3 5
28 17 55 26 28 9 56 23 64 30 7 8 67 40 132 73 66 32 142 72 171 89 28 17 55
28 59 25 4 -4 4 -2 0 5 -3 6 -2 14 4 18 6 4 7 11 4 17 -4 6 -3 8 3 5 10 -7
127 102 119 111 -3 3 -17 -7 -31 -22 -14 -15 -29 -25 -34 -22 -5 3 -14 -1 -21
-9 -7 -8 -17 -12 -23 -8 -6 3 -7 1 -3 -6 4 -6 12 -8 18 -5 6 4 8 2 4 -4 -3 -6
-15 -9 -26 -7 -12 2 -18 0 -15 -5 3 -5 -8 -19 -25 -31 -22 -17 -27 -25 -18
-32 8 -5 5 -6 -9 -2 -12 3 -24 1 -28 -5 -3 -6 -10 -8 -15 -5 -5 3 -12 0 -16
-6 -5 -8 -3 -9 6 -4 9 6 11 4 6 -4 -5 -7 -15 -10 -23 -7 -11 5 -13 2 -9 -9 4
-11 2 -14 -6 -9 -6 4 -16 0 -22 -8 -6 -8 -15 -16 -21 -18 -5 -1 -27 -11 -48
-22 -22 -11 -45 -17 -52 -14 -10 3 -12 0 -8 -11 4 -10 2 -14 -4 -10 -6 4 -16
1 -22 -6 -17 -21 -159 -85 -227 -102 -90 -23 -266 -34 -281 -19 -10 10 -1 14
45 19 83 9 160 24 215 42 54 17 79 10 28 -8 -18 -6 -30 -13 -28 -15 2 -3 17 1
33 7 16 7 33 11 37 10 5 -1 6 3 3 8 -4 5 24 19 61 31 72 24 111 47 58 34 -16
-4 -39 -11 -49 -16 -37 -20 -73 -26 -91 -16 -12 7 -16 7 -12 1 14 -22 -250
-75 -281 -57 -19 11 -55 7 -47 -6 3 -4 -38 -7 -91 -5 -70 2 -100 7 -113 19
-10 9 -25 16 -34 16 -10 0 -17 7 -16 18 0 10 3 12 6 5 2 -7 18 -13 34 -13 21
0 27 4 23 15 -4 8 -16 15 -28 16 -20 0 -20 1 -1 9 17 7 15 9 -12 9 -54 1 -49
21 5 21 40 0 50 3 48 17 -1 12 10 17 47 20 28 2 47 0 47 -7 0 -5 5 -10 11 -10
5 0 8 3 6 7 -8 12 53 14 75 2 14 -7 23 -7 34 2 10 8 14 8 14 0 0 -8 5 -9 19
-1 23 12 61 2 40 -11 -8 -5 -1 -7 19 -7 17 1 29 5 26 10 -3 4 2 8 11 8 9 0 14
-4 11 -9 -3 -5 8 -6 27 -2 17 4 42 7 54 6 18 -1 20 1 11 12 -9 11 -7 12 7 7
12 -5 16 -4 11 4 -5 8 5 12 31 12 21 0 47 0 58 0 11 1 57 12 103 26 45 14 88
22 94 18 6 -4 8 -3 5 3 -7 11 80 56 93 48 4 -3 11 2 14 11 4 10 14 14 26 11
11 -3 18 0 17 7 -1 6 6 10 15 10 10 -1 16 3 15 9 -1 6 22 27 50 46 29 19 51
37 49 39 -6 5 -52 -20 -122 -66 -61 -39 -192 -101 -254 -120 -19 -6 -60 -13
-90 -16 l-55 -5 40 18 c22 10 43 16 48 14 4 -2 20 5 36 16 16 12 34 21 40 21
6 0 11 4 11 9 0 4 10 6 23 4 14 -3 29 2 36 11 8 9 19 16 25 16 6 0 24 7 40 15
15 8 32 12 37 9 5 -3 9 -1 9 5 0 6 11 13 25 17 14 3 23 10 20 15 -3 4 4 13 15
19 11 6 18 15 16 19 -3 4 1 8 9 8 18 0 19 -9 3 -26 -11 -11 -9 -11 7 -3 11 6
29 13 40 17 16 5 17 8 5 16 -13 9 -12 10 2 6 9 -3 31 5 49 19 19 13 39 22 47
19 7 -2 11 -1 8 4 -3 5 1 14 9 21 8 7 15 9 15 5 0 -4 9 3 19 16 11 13 25 24
33 25 31 3 58 17 63 35 4 10 13 19 20 19 8 0 17 5 21 12 5 7 2 8 -7 3 -11 -6
-12 -5 -1 6 24 25 12 32 -15 8 l-28 -24 23 26 c22 25 57 37 45 15 -3 -6 6 0
20 13 27 25 35 37 17 26 -23 -14 -6 5 55 64 53 51 64 59 61 40 -3 -13 -5 -30
-5 -37 -1 -9 -8 -11 -20 -7 -14 4 -23 0 -31 -14 -6 -12 -16 -20 -22 -18 -6 1
-13 -5 -15 -13 -4 -12 -3 -12 5 -1 6 8 11 9 13 2 2 -6 -31 -48 -75 -93 -43
-46 -97 -105 -120 -132 -39 -47 -39 -49 -11 -32 17 10 44 36 62 59 17 23 46
58 63 77 17 19 41 47 53 62 12 15 27 28 33 28 7 0 15 7 18 16 4 9 9 14 13 11
10 -10 75 82 67 96 -4 6 1 5 11 -4 14 -14 15 -20 4 -40 l-12 -24 26 25 c20 19
23 26 12 28 -19 4 -19 11 3 36 l17 21 -24 -20 -24 -20 13 24 c11 21 10 23 -4
18 -26 -10 -19 4 32 65 82 99 92 113 91 133 -1 16 -2 15 -8 -5 -5 -17 -14 -24
-27 -23 -10 1 -13 0 -6 -3 6 -3 9 -10 6 -15 -4 -6 -11 -6 -20 2 -10 8 -11 16
-3 31 9 16 13 17 27 7 15 -12 15 -11 0 6 -17 18 -18 18 -37 -6 -11 -13 -20
-19 -21 -13 0 16 34 44 54 44 12 0 17 7 14 23 -1 13 5 35 15 50 22 33 22 43 0
26 -15 -12 -16 -12 -8 1 21 37 69 100 73 96 2 -3 -8 -20 -22 -39 -26 -34 -34
-53 -17 -42 6 3 9 -3 8 -14 0 -11 -5 -17 -9 -15 -4 3 -8 -4 -8 -15 0 -11 -7
-21 -15 -23 -12 -2 -11 -6 6 -16 15 -10 19 -10 14 -1 -5 7 -2 17 7 23 18 13
29 54 17 61 -12 8 0 32 16 32 10 0 12 -4 5 -12 -6 -7 -4 -21 5 -38 13 -25 12
-33 -14 -90 -15 -34 -35 -68 -44 -76 -22 -18 -22 -45 1 -62 15 -12 15 -12 5 1
-9 12 -3 31 27 92 21 43 43 92 49 109 7 19 16 29 24 26 7 -3 13 3 14 13 2 27
34 71 46 63 6 -3 7 -1 3 5 -4 6 0 25 9 41 22 43 18 53 -5 11 -21 -39 -26 -36
-9 7 8 23 7 30 -7 40 -10 7 -13 13 -8 13 6 0 15 -5 22 -12 12 -12 16 0 15 39
-1 7 3 11 7 8 5 -3 11 -1 15 5 3 5 1 10 -4 10 -6 0 -11 5 -11 11 0 5 4 8 9 5
5 -3 9 4 9 17 0 12 3 33 7 46 6 17 5 22 -3 17 -7 -4 -12 -16 -12 -27 0 -13 -4
-18 -12 -13 -7 4 -8 3 -4 -4 4 -7 1 -21 -7 -33 -9 -13 -17 -16 -22 -10 -3 6
-2 11 3 11 5 0 9 6 9 13 1 6 7 32 15 57 7 25 13 52 13 60 0 8 7 21 17 28 12 9
17 23 14 45 -5 49 14 79 27 43 4 -9 1 -13 -6 -10 -8 3 -11 -10 -10 -46 1 -27
-2 -50 -7 -50 -5 0 -14 -10 -21 -21 -6 -13 -7 -19 -1 -15 6 3 12 0 15 -6 2 -7
8 -1 12 15 4 15 11 27 17 27 5 0 6 5 2 11 -4 7 1 10 12 7 19 -3 20 -10 9 -76
-6 -37 14 -14 21 24 4 20 10 31 14 25 4 -7 11 -3 17 12 9 18 8 28 0 36 -9 9
-8 11 7 5 15 -6 17 -4 11 14 -3 12 -3 22 2 22 4 0 13 16 19 35 8 24 8 32 0 28
-6 -4 -2 3 8 15 11 13 19 36 18 54 -1 31 39 84 53 70 3 -4 3 1 -1 11 -3 9 -11
14 -17 10 -6 -3 -7 -1 -3 5 8 13 36 5 37 -12 0 -6 4 0 10 12 5 13 6 28 3 34
-4 6 0 15 7 20 18 12 6 8 -54 -21 -53 -25 -183 -55 -198 -46 -5 4 -7 10 -4 15
3 5 -9 7 -27 4 -18 -3 -53 -1 -78 4 -38 8 -41 10 -15 12 26 1 27 3 10 10 -30
13 -57 12 -49 -1 9 -15 -46 -3 -61 13 -7 8 -6 9 3 4 6 -4 17 -4 23 0 6 3 -15
17 -46 29 -31 13 -66 32 -78 42 -14 12 -13 7 6 -15 20 -25 25 -40 21 -59 -5
-18 -3 -24 5 -19 6 4 11 1 11 -6 0 -8 -21 -34 -47 -58 -43 -40 -39 -31 9 24
10 11 16 22 13 24 -3 3 -15 -8 -27 -24 -13 -16 -39 -44 -58 -61 -19 -18 -36
-42 -36 -53 -1 -11 0 -20 2 -20 2 0 23 17 46 38 23 20 35 28 27 16 -30 -44
-134 -121 -225 -167 -58 -29 -221 -78 -256 -76 -23 1 -23 1 2 9 48 15 -8 10
-105 -10 -104 -21 -155 -25 -155 -12 0 9 -36 9 -45 0 -8 -8 -154 20 -251 48
-159 46 -521 215 -507 237 4 6 1 7 -7 2 -8 -5 -18 -1 -27 11 -8 10 -15 17 -17
14 -1 -3 -33 14 -69 38 -42 27 -65 48 -61 55 4 7 4 9 -1 5 -15 -14 -97 45
-107 77 -2 6 -7 9 -11 7 -11 -3 -76 47 -87 69 -10 18 11 156 27 182 4 6 8 19
10 27 8 55 15 80 26 87 7 5 26 50 42 102 16 51 35 96 42 98 7 3 10 9 7 14 -3
5 -1 9 3 9 5 0 28 36 52 80 23 44 44 80 47 80 3 0 0 -9 -6 -21 -7 -11 -9 -23
-7 -26 3 -3 13 10 23 29 28 54 137 188 210 259 38 36 108 93 156 128 49 35 85
68 81 74 -4 6 -1 7 6 3 7 -5 38 3 69 17 41 18 83 26 147 31 50 3 84 2 77 -3
-20 -12 20 -21 42 -9 10 6 16 5 16 -2 0 -5 9 -10 21 -10 15 0 19 -5 15 -15 -3
-9 0 -15 10 -15 8 0 13 4 10 9 -4 5 7 4 23 -2 17 -6 28 -13 26 -16 -2 -4 10
-6 25 -6 15 0 26 3 24 7 -12 19 64 -24 107 -61 55 -47 97 -104 140 -191 42
-85 39 -96 -16 -58 -36 25 -54 31 -93 30 -67 -1 -124 -27 -159 -70 -41 -53
-163 -255 -201 -334 -78 -163 -82 -324 -11 -465 39 -78 123 -167 150 -160 11
3 17 1 14 -3 -7 -12 81 -43 105 -37 11 3 18 1 14 -4 -6 -11 98 -10 141 1 17 4
23 8 15 9 -14 2 28 27 112 68 21 10 38 22 38 26 0 5 -4 5 -10 2 -6 -3 -7 1 -4
9 3 9 31 27 61 41 37 17 78 48 121 93 l65 68 1 119 c1 115 2 123 34 187 19 36
42 75 52 86 10 11 16 22 13 25 -3 4 17 33 45 66 27 33 52 58 55 55 3 -3 4 46
3 110 l-2 115 -53 105 c-29 58 -71 124 -94 148 -87 91 -225 192 -249 183 -7
-3 -35 4 -63 15 l-50 21 40 -7 c22 -3 46 -11 53 -16 7 -6 15 -8 19 -5 12 13
-68 37 -134 42 -241 17 -270 17 -291 6 -12 -7 -22 -8 -22 -2 0 5 6 12 13 14
20 8 -62 -4 -133 -19 -66 -14 -202 -67 -230 -89 -8 -7 -60 -40 -114 -75 -55
-34 -126 -82 -158 -106 -32 -25 -58 -41 -58 -36 0 6 -7 12 -15 16 -8 3 -14 0
-12 -6 1 -6 -4 -13 -10 -15 -21 -8 -15 15 9 31 15 11 25 12 34 5 10 -8 24 -2
54 22 44 35 51 46 20 29 -20 -11 -30 3 -10 15 13 8 3 25 -13 25 -7 0 -6 -4 3
-10 13 -8 13 -10 -2 -10 -32 0 -27 17 11 38 21 12 44 29 51 37 13 16 55 21 46
6 -4 -5 0 -12 6 -14 10 -4 10 -6 1 -6 -7 -1 -13 -6 -13 -13 0 -6 8 -4 19 6 11
10 25 15 32 10 7 -4 10 -3 5 4 -3 5 0 13 6 15 10 4 10 7 0 14 -21 16 -22 48
-1 61 10 7 19 8 19 3 0 -5 -6 -11 -12 -14 -7 -2 -11 -7 -7 -10 3 -4 33 7 66
22 34 16 64 27 66 24 3 -3 13 -1 22 5 30 16 -9 22 -40 6 -32 -17 -35 -17 -35
-4 0 6 7 10 15 10 8 0 15 5 15 11 0 5 5 7 10 4 6 -3 10 -2 10 4 0 6 7 7 17 4
11 -4 14 -3 9 5 -4 8 -2 10 8 6 8 -3 16 -12 18 -21 2 -12 8 -11 28 7 14 12 39
29 55 38 46 23 15 25 -40 2 -26 -11 -50 -19 -52 -16 -3 2 12 10 31 17 20 7 36
16 36 19 0 3 12 7 26 8 15 1 32 6 38 11 6 5 26 8 44 6 17 -1 32 2 32 6 0 4 7
10 16 13 8 3 12 2 9 -4 -3 -6 -2 -10 4 -10 5 0 12 4 15 9 9 14 45 20 53 9 3
-7 1 -8 -5 -4 -7 4 -12 2 -12 -4 0 -7 7 -9 16 -6 9 3 18 6 21 6 3 0 -1 8 -8
18 -11 14 -11 15 0 5 7 -6 21 -9 30 -6 14 4 14 3 1 -6 -12 -9 -11 -11 7 -11
15 0 21 5 17 14 -4 11 4 14 39 13 25 -1 42 -6 39 -11 -3 -5 1 -5 9 0 16 10
169 13 169 3 0 -7 45 -4 83 6 20 5 27 4 27 -6 1 -9 4 -8 11 4 5 9 17 17 26 17
14 0 14 -2 -2 -14 -18 -13 -18 -14 8 -9 28 6 139 -29 167 -52 8 -6 22 -15 30
-19 8 -4 6 0 -4 8 -11 9 -14 16 -7 16 7 0 9 5 6 10 -6 9 14 -2 85 -47 20 -12
19 -10 -5 12 -16 15 -40 36 -53 46 -13 11 -20 24 -17 30 4 5 2 8 -3 7 -5 -2
-36 22 -68 53 -61 58 -98 81 -148 93 -16 4 -39 14 -50 22 -20 15 -19 15 14 10
19 -3 -44 21 -140 53 -96 33 -200 63 -231 66 -32 3 -71 10 -88 15 -33 9 -36
10 -48 10 -5 0 -2 4 6 9 7 5 61 6 120 4 58 -3 103 -2 99 2 -3 4 -21 9 -40 11
-18 2 -73 10 -123 18 -49 8 -106 17 -125 20 -19 4 -113 8 -209 11 -95 3 -199
9 -231 13 -71 10 -349 -13 -478 -39 -30 -6 -56 -8 -59 -5 -4 3 -1 6 6 6 7 0 9
5 6 10 -3 6 -1 11 4 11 15 2 23 5 41 13 9 3 40 8 70 10 215 15 330 31 330 46
0 5 -15 4 -33 -1 -18 -5 -74 -10 -124 -11 -57 -2 -89 -7 -85 -13 3 -5 -3 -3
-13 5 -18 14 -18 15 3 18 12 2 22 9 22 16 0 8 -10 11 -29 8 -21 -3 -34 3 -50
20 -14 15 -20 17 -16 6 5 -14 -3 -18 -52 -25 -32 -4 -64 -7 -71 -6 -6 0 -12
-6 -12 -14 0 -8 -6 -13 -13 -10 -6 2 -18 -2 -25 -10 -11 -12 -9 -13 15 -7 15
4 42 7 60 8 17 1 29 4 27 8 -2 3 12 6 31 6 19 0 32 -4 29 -9 -3 -5 -12 -9 -20
-9 -8 0 -14 -4 -14 -8 0 -4 -10 -8 -22 -9 -12 -1 -34 -7 -50 -14 -15 -6 -34
-9 -43 -5 -8 3 -15 1 -15 -4 0 -6 -9 -10 -19 -10 -26 0 -35 -16 -15 -24 25 -9
56 -7 49 4 -3 6 -1 10 4 10 6 0 11 -6 11 -14 0 -8 -20 -17 -52 -24 -55 -11
-95 -2 -43 9 l30 7 -32 1 c-18 0 -33 -3 -33 -8 0 -20 -145 28 -162 53 -4 6 -8
8 -8 3 0 -4 -13 -1 -30 8 -16 8 -44 15 -63 15 -35 0 -49 25 -15 27 10 1 16 -3
13 -8 -4 -5 12 -8 39 -7 25 2 46 6 46 9 0 9 50 18 54 10 2 -3 -2 -15 -10 -26
-12 -16 -14 -17 -14 -2 0 9 -4 17 -10 17 -6 0 -5 -9 1 -24 8 -17 17 -22 33
-19 15 3 17 2 8 -5 -11 -7 -11 -10 2 -15 9 -4 16 -2 16 4 0 6 6 9 13 6 8 -3
14 1 14 8 0 8 -7 11 -15 7 -9 -3 -13 -1 -9 5 8 13 56 23 62 13 3 -5 0 -10 -7
-12 -8 -3 -6 -7 4 -11 13 -4 16 -1 13 14 -3 14 2 19 18 20 17 1 15 3 -8 9 -29
7 -29 8 10 9 22 1 60 8 85 16 38 13 40 15 13 12 -36 -4 -41 4 -18 23 12 10 15
10 15 -1 0 -11 2 -11 10 1 9 13 11 13 20 0 5 -8 10 -12 10 -8 0 4 13 3 30 -2
23 -7 32 -5 39 7 4 9 20 17 34 17 14 1 29 5 33 9 4 4 13 2 21 -4 10 -9 13 -8
13 2 0 11 2 11 10 -1 7 -11 10 -11 10 -2 0 7 4 11 9 8 5 -4 11 -2 13 4 2 6 51
12 112 15 60 3 112 8 115 13 7 10 222 9 239 -2 7 -4 12 -2 12 6 0 9 3 9 10 -2
5 -8 10 -10 10 -4 0 7 10 9 25 6 14 -2 22 -8 19 -13 -3 -5 -1 -9 5 -9 5 0 12
6 14 13 3 6 6 8 6 2 2 -29 -17 -39 -53 -28 -21 7 -38 7 -42 2 -3 -5 6 -9 20
-9 14 0 27 -4 30 -9 7 -11 79 -2 86 10 3 5 22 7 42 5 29 -3 35 -1 31 11 -4 11
0 14 18 11 13 -2 23 -9 22 -15 -2 -6 6 -11 17 -10 11 1 20 5 20 9 0 6 23 1 80
-19 8 -3 32 -7 53 -8 21 -2 45 -9 54 -17 12 -9 15 -10 9 0 -9 16 -6 15 33 -4
18 -9 35 -13 38 -10 4 3 1 6 -6 6 -7 0 -9 5 -5 12 5 8 2 9 -11 4 -14 -5 -15
-4 -7 6 8 10 2 13 -26 12 -46 -1 -73 6 -66 18 3 5 -6 6 -23 3 -19 -5 -24 -4
-15 3 11 7 9 10 -7 15 -12 3 -24 0 -28 -5 -3 -7 -1 -8 5 -4 7 4 12 3 12 -3 0
-12 -63 -2 -68 11 -2 4 -8 5 -13 2 -5 -3 -28 -3 -51 1 -23 4 -36 10 -29 15 7
4 -2 7 -21 7 -26 1 -28 -1 -13 -7 16 -6 11 -9 -23 -15 -24 -4 -46 -4 -49 -1
-4 3 6 6 21 6 16 0 25 4 21 10 -3 6 -15 10 -25 10 -10 0 -21 6 -23 13 -4 8 -6
8 -6 -2 -1 -10 -8 -8 -25 8 -24 22 -53 21 -40 -1 5 -7 -2 -9 -22 -4 -85 19
-94 19 -94 2 0 -17 -11 -19 -50 -6 -23 7 -22 8 10 10 l35 2 -30 9 c-16 6 -86
12 -154 15 -96 4 -126 2 -132 -8 -7 -11 -9 -11 -9 1 0 13 -16 12 -74 -6 -12
-3 -16 -1 -12 6 4 6 2 11 -3 11 -6 0 -11 -5 -11 -12 0 -6 -6 -4 -13 7 -11 14
-16 15 -22 5 -5 -9 -4 -11 3 -6 7 4 12 2 12 -5 0 -7 -11 -10 -30 -7 -16 3 -30
1 -30 -3 0 -4 -16 -10 -36 -13 -19 -4 -43 -10 -52 -13 -15 -4 -15 -3 -2 6 9 7
11 11 3 11 -7 0 -16 -7 -21 -16 -6 -11 -17 -15 -31 -11 -11 3 -21 2 -21 -3 0
-14 -50 -21 -70 -10 -14 7 -20 7 -20 0 0 -5 6 -10 13 -11 6 0 3 -4 -8 -9 -27
-12 -43 -12 -25 0 12 8 10 10 -8 10 -14 0 -21 -4 -16 -11 4 -7 -1 -7 -16 1
-12 7 -20 8 -17 3 3 -4 -1 -14 -8 -20 -11 -10 -17 -10 -28 2 -13 12 -16 12
-20 -5 -3 -11 -13 -20 -24 -20 -10 0 -70 -18 -133 -41 -127 -44 -171 -54 -164
-36 5 13 142 77 219 104 31 10 43 18 34 23 -7 5 2 8 22 7 45 -1 131 36 106 46
-11 4 -16 3 -12 -3 3 -6 -1 -10 -10 -10 -9 0 -29 -7 -45 -15 -26 -14 -29 -14
-24 0 3 8 9 13 13 11 4 -3 13 0 21 5 11 7 7 8 -14 5 -16 -3 -32 -9 -35 -14 -3
-5 -14 -11 -24 -15 -10 -4 -16 -11 -13 -16 3 -5 -4 -11 -16 -14 -13 -4 -26 -1
-30 6 -6 9 -8 8 -8 -3 0 -9 -42 -33 -110 -64 -118 -52 -125 -62 -85 -109 11
-12 18 -23 16 -25 -2 -1 -1 -12 2 -23 6 -20 6 -20 27 1 12 12 28 19 36 16 9
-3 12 -1 9 4 -3 6 -2 10 3 10 18 0 21 -29 4 -33 -11 -3 -8 -5 8 -6 25 -1 83
17 108 32 8 5 12 3 12 -7 0 -11 8 -15 28 -14 15 1 29 6 32 10 3 4 16 9 28 11
12 2 25 7 29 12 8 8 -35 2 -72 -10 -15 -5 -17 -4 -6 3 11 8 9 11 -10 14 -21 3
-20 4 8 9 18 3 30 2 27 -3 -3 -4 -1 -8 5 -8 5 0 11 5 13 12 3 9 14 7 41 -5 41
-20 48 -28 17 -20 -12 3 -20 0 -20 -7 0 -7 -6 -10 -14 -7 -7 3 -24 -1 -36 -10
-15 -11 -34 -13 -63 -9 -26 4 -59 0 -87 -9 l-45 -15 45 7 c25 3 75 7 112 7 37
0 65 3 62 5 -3 3 16 11 43 18 27 7 52 8 57 3 4 -4 14 -7 20 -6 6 2 8 1 3 -1
-4 -3 -5 -9 -1 -14 3 -5 -2 -9 -11 -9 -10 0 -13 5 -9 12 5 7 2 9 -8 5 -9 -3
-34 -11 -57 -18 -23 -7 -41 -18 -41 -25 0 -7 -14 -16 -32 -19 -26 -6 -29 -9
-14 -17 24 -13 11 -27 -26 -26 -28 1 -29 2 -13 15 25 17 13 17 -32 -2 -29 -12
-38 -13 -45 -3 -6 10 -8 9 -8 -3 0 -9 -7 -16 -15 -16 -10 0 -14 6 -10 16 3 8
3 12 -1 8 -4 -4 -13 -2 -21 4 -10 9 -13 8 -13 -5 0 -9 4 -16 10 -16 5 0 7 -6
4 -14 -3 -8 2 -13 13 -13 42 0 49 -3 33 -13 -9 -5 -19 -5 -26 1 -8 6 -14 6
-18 1 -10 -17 26 -23 49 -8 12 8 37 16 56 18 20 2 33 8 32 15 -2 7 4 10 12 7
9 -4 21 -1 29 5 7 6 16 7 20 3 5 -4 6 2 4 13 -2 16 3 20 27 20 17 0 36 4 43 8
8 6 12 4 10 -5 -2 -7 3 -12 10 -10 8 1 11 -2 7 -8 -4 -6 -16 -8 -27 -4 -15 4
-18 3 -13 -7 6 -9 3 -11 -9 -6 -13 5 -17 3 -13 -7 4 -10 0 -12 -14 -9 -12 3
-19 0 -19 -8 0 -22 47 -20 53 1 3 13 11 17 26 13 12 -3 21 -1 21 6 0 5 6 8 13
5 7 -2 32 2 55 10 27 10 42 11 42 4 0 -19 45 19 45 38 1 11 5 18 10 18 6 -1
28 -5 50 -8 22 -4 36 -3 30 1 -5 4 -11 17 -13 28 -2 15 -1 17 7 6 5 -8 16 -11
26 -8 11 5 14 3 9 -5 -5 -8 -2 -9 9 -5 10 3 17 3 17 -2 0 -10 48 -2 56 10 3 5
0 9 -5 9 -21 0 -10 18 14 24 14 4 23 10 21 15 -6 9 142 31 204 31 44 0 33 -10
-14 -12 -20 -1 -36 -5 -36 -10 0 -5 -4 -7 -9 -3 -5 3 -13 0 -17 -6 -5 -9 0
-10 17 -5 13 4 39 10 57 13 19 3 36 11 38 18 6 13 32 13 373 -4 96 -5 177 -14
180 -20 4 -5 24 -12 46 -14 22 -2 11 -3 -25 -1 -36 3 -96 6 -135 8 -38 2 -110
7 -160 10 -241 17 -228 17 -317 -13 -163 -56 -247 -102 -366 -198 -30 -24 -59
-40 -64 -36 -6 3 -8 1 -4 -5 7 -12 -6 -23 -37 -27 -29 -4 -179 -55 -192 -65
-16 -11 -108 -41 -113 -35 -3 2 8 9 23 15 15 6 26 13 23 16 -7 6 -111 -48
-121 -63 -4 -7 -15 -13 -24 -13 -14 0 -14 2 3 15 18 14 18 14 -10 15 -37 0
-30 9 10 12 17 1 31 8 31 15 0 6 -4 10 -8 7 -4 -2 -9 3 -11 12 -3 13 -6 13
-23 -3 -11 -10 -29 -17 -40 -16 -15 2 -16 1 -5 -5 9 -4 16 -15 16 -24 4 -61 2
-58 31 -43 15 8 31 11 36 8 6 -3 7 -1 4 4 -8 12 20 39 30 30 3 -4 13 -1 21 6
13 10 15 9 9 -7 -6 -15 -5 -16 6 -8 10 9 201 82 213 82 2 0 1 -8 -3 -17 -4
-14 1 -12 23 8 64 55 66 49 4 -14 -62 -65 -108 -95 -59 -39 16 18 12 16 -13
-7 -21 -19 -35 -37 -33 -41 2 -4 -28 -39 -68 -79 -77 -77 -103 -106 -142 -160
-14 -19 -25 -31 -25 -25 0 5 -7 0 -15 -10 -8 -11 -15 -16 -15 -10 0 5 -5 2
-10 -6 -8 -12 -10 -9 -10 12 0 40 -21 82 -32 66 -6 -9 -7 -5 -3 9 6 21 -30
102 -74 167 -10 16 -17 36 -13 44 3 10 1 13 -6 8 -16 -10 -15 7 1 23 10 10 8
16 -11 31 -13 11 -18 21 -12 25 5 3 10 3 10 -2 0 -4 4 -2 9 6 11 18 3 43 -12
34 -5 -3 -7 -2 -4 4 3 5 1 26 -5 46 -9 31 -15 36 -33 31 -15 -4 -22 -1 -22 10
0 12 4 13 14 5 15 -13 15 -13 18 18 1 12 -3 21 -9 20 -6 -1 -10 5 -9 13 2 8
-9 20 -22 27 -30 14 -30 12 -5 -17 24 -28 10 -56 -20 -40 -9 5 -21 6 -25 2 -5
-4 -5 -1 -1 6 4 7 12 10 17 6 6 -3 7 5 3 23 -8 35 -20 48 -28 34 -4 -6 -3 -11
2 -11 5 0 9 -7 9 -15 0 -27 -13 -16 -34 30 -12 25 -16 41 -9 36 8 -7 12 -5 12
8 0 10 -6 17 -12 14 -7 -2 -15 1 -20 8 -4 7 -3 10 4 5 18 -11 19 17 1 53 -9
19 -15 41 -12 48 3 7 -2 24 -11 38 -9 13 -16 31 -16 40 0 8 -4 15 -10 15 -5 0
-9 3 -9 8 3 12 -13 88 -20 100 -7 12 -113 17 -151 7 -20 -5 -22 -4 -10 4 11 9
4 10 -30 5 -25 -3 -51 -7 -58 -10 -7 -2 -10 1 -6 7 15 24 -210 -24 -313 -68
-19 -7 -38 -11 -42 -8 -5 3 -11 -2 -15 -10 -3 -9 -12 -12 -22 -8 -12 4 -15 3
-10 -5 6 -10 -7 -17 -17 -9 -2 1 -11 -6 -21 -16 -31 -31 -106 -78 -115 -73 -5
3 -14 -1 -21 -9 -10 -12 -10 -15 1 -15 7 0 2 -8 -11 -17 -46 -32 -113 -93
-103 -93 4 0 -4 -8 -17 -17 -14 -10 -34 -29 -45 -42 -11 -14 -28 -32 -37 -40
-17 -14 -18 -100 -18 -1486 1 -1291 2 -1466 15 -1437 8 18 19 31 24 28 5 -3 8
2 7 12 0 9 4 16 11 15 7 -2 10 4 7 12 -4 10 0 15 11 15 9 0 14 4 11 8 -7 12
90 203 99 194 5 -4 5 1 2 10 -4 10 -3 18 2 18 5 0 19 29 32 65 12 36 25 65 29
65 3 0 11 -12 18 -27 11 -27 11 -27 6 7 -6 34 -5 34 11 15 l16 -20 -9 20 c-5
11 -15 45 -21 75 -7 30 -21 84 -31 120 -10 36 -21 92 -24 125 -3 33 -10 94
-15 135 -6 41 -13 120 -16 175 -3 55 -10 101 -15 103 -5 2 -7 9 -5 15 2 7 6
73 9 147 2 74 7 142 10 150 3 8 7 38 10 65 8 80 18 115 28 109 6 -4 5 4 -2 16
-7 13 -8 20 -2 16 15 -9 25 33 42 169 10 87 49 236 64 246 5 4 6 16 3 28 -3
12 -2 19 2 16 8 -5 33 65 36 100 1 11 12 43 24 70 13 28 30 68 38 90 9 22 20
45 25 52 6 7 6 18 2 24 -5 8 -3 9 6 4 10 -6 12 -4 7 8 -3 10 -3 17 2 17 5 0 8
10 7 23 -1 13 4 21 12 19 7 -1 15 6 19 15 4 10 10 21 15 24 9 6 19 41 21 71 1
9 4 15 8 12 10 -6 30 21 22 29 -3 4 -1 7 5 7 7 0 12 7 12 16 0 8 3 13 7 11 5
-3 18 11 30 30 13 19 17 31 10 28 -6 -4 -1 2 12 13 13 10 21 24 18 29 -4 6 1
17 11 24 16 13 16 12 2 -6 -15 -20 -14 -20 8 -1 17 15 19 22 10 28 -9 5 -6 8
10 8 21 0 27 9 22 39 -1 9 4 12 16 7 10 -4 15 -4 12 0 -8 8 16 34 31 34 6 0
11 4 11 8 0 12 131 145 162 165 27 17 28 17 43 -10 10 -17 14 -20 11 -8 l-6
20 15 -20 c8 -11 20 -26 27 -34 10 -13 54 -95 175 -328 20 -40 34 -75 30 -79
-4 -4 -21 -7 -39 -8 -30 -1 -33 -3 -30 -30 3 -19 0 -26 -7 -21 -6 3 -8 11 -5
17 4 7 2 8 -5 4 -6 -4 -19 -2 -27 5 -12 10 -13 9 -8 -5 3 -9 12 -16 18 -16 30
0 5 -42 -57 -94 -37 -32 -67 -59 -67 -62 0 -3 32 22 72 56 39 33 75 60 80 60
4 0 27 14 50 30 26 19 35 30 24 30 -11 0 -14 5 -10 12 5 8 13 5 24 -10 10 -12
20 -19 24 -17 3 3 3 2 0 -2 -3 -4 -13 -8 -22 -8 -9 0 -16 -6 -14 -13 1 -8 -2
-11 -7 -7 -13 7 -51 -16 -51 -31 0 -6 9 -19 19 -28 11 -10 31 -43 46 -74 26
-54 28 -56 42 -37 14 19 15 19 8 -5 -10 -33 -10 -29 0 -74 5 -24 4 -41 -3 -45
-19 -12 -100 -185 -147 -316 -132 -365 -205 -726 -205 -1009 0 -117 32 -434
55 -551 9 -44 23 -118 31 -165 18 -108 54 -243 105 -395 42 -125 47 -142 48
-162 1 -7 4 -12 9 -12 19 3 23 -2 13 -15 -10 -12 -5 -24 24 -61 19 -26 32 -52
29 -57 -4 -7 -2 -8 4 -4 6 3 16 -2 21 -13 16 -29 13 -35 -6 -20 -10 7 -2 -4
16 -24 19 -20 40 -37 45 -37 6 1 1 9 -12 19 -12 11 -22 25 -22 32 0 20 53 -44
126 -154 36 -53 69 -95 73 -92 5 2 8 -3 7 -13 0 -10 6 -16 16 -16 10 1 16 -1
14 -5 -2 -3 2 -15 10 -26 8 -10 14 -15 14 -10 0 4 9 0 19 -9 11 -10 25 -15 32
-10 8 4 10 3 5 -4 -4 -7 2 -16 16 -21 115 -47 172 -64 223 -68 93 -5 108 -9
212 -57 54 -25 129 -52 167 -61 38 -8 74 -19 80 -24 32 -24 119 -36 256 -34
171 1 285 20 430 68 149 51 309 142 294 167 -4 7 -2 8 4 4 7 -4 12 -3 12 2 0
6 7 13 16 16 15 6 15 4 3 -11 -13 -16 -12 -17 4 -4 9 7 17 22 17 33 0 10 5 16
10 13 6 -4 8 -11 5 -16 -4 -5 2 -6 11 -2 11 4 13 8 6 11 -7 2 -12 8 -12 13 0
6 5 7 10 4 6 -3 10 -1 10 4 0 6 5 11 11 11 5 0 7 -6 3 -12 -4 -8 -3 -10 2 -5
5 5 9 14 9 20 0 7 7 12 15 12 8 0 15 7 15 15 0 8 7 15 16 15 9 0 52 32 96 71
122 111 139 128 150 149 7 11 18 20 27 20 17 0 226 201 226 217 0 10 35 56 94
123 25 27 129 180 171 249 l17 29 18 -39 c22 -47 26 -40 5 9 -18 43 -19 50 -5
42 6 -3 7 1 4 9 -3 9 -1 16 6 16 6 0 8 5 4 12 -4 7 -3 8 5 4 6 -4 9 -11 6 -16
-3 -5 1 -22 8 -37 43 -84 102 -310 91 -346 -3 -11 -2 -17 3 -14 6 4 9 -7 8
-23 -1 -17 1 -28 4 -24 11 11 31 -124 37 -257 10 -194 -16 -352 -91 -554 -18
-49 -43 -118 -55 -153 -13 -34 -25 -61 -27 -58 -2 2 5 28 17 57 29 77 24 74
-19 -11 -100 -197 -135 -258 -169 -290 l-37 -36 522 1 523 0 0 2558 0 2557
-167 -1 c-93 -1 -161 -3 -153 -5z m-4022 -201 c-10 -2 -26 -2 -35 0 -10 3 -2
5 17 5 19 0 27 -2 18 -5z m1620 -6 c-14 -14 -70 -18 -62 -5 3 5 8 7 12 4 4 -2
16 0 27 5 30 12 38 10 23 -4z m59 7 c-3 -3 -12 -4 -19 -1 -8 3 -5 6 6 6 11 1
17 -2 13 -5z m-1737 -14 c12 -7 10 -9 -8 -7 -12 0 -22 5 -22 9 0 11 12 10 30
-2z m328 -2 c6 -8 6 -21 1 -33 -8 -18 -8 -17 -6 5 1 16 -3 24 -10 23 -7 -2
-13 2 -13 7 0 14 16 13 28 -2z m1479 6 c-3 -3 -12 -4 -19 -1 -8 3 -5 6 6 6 11
1 17 -2 13 -5z m243 -9 c10 -12 10 -15 -3 -15 -8 0 -17 7 -21 15 -3 8 -2 15 3
15 5 0 14 -7 21 -15z m-466 -7 c-3 -5 -9 -6 -14 -3 -5 3 -19 1 -32 -4 -14 -5
-31 -6 -38 -1 -10 6 -8 9 6 12 36 7 83 4 78 -4z m225 0 c9 3 11 0 6 -8 -8 -12
-53 -6 -69 11 -6 5 2 5 20 0 16 -4 35 -6 43 -3z m-307 -38 c5 0 7 4 4 8 -2 4
7 9 22 10 15 1 57 6 94 10 37 5 65 5 62 1 -2 -4 -30 -11 -62 -14 -31 -4 -68
-9 -82 -12 -37 -8 -145 -21 -230 -29 -60 -5 -73 -4 -63 6 6 7 26 13 42 14 17
1 31 5 31 9 0 5 6 7 13 4 6 -2 18 3 25 12 12 15 13 15 9 0 -5 -14 0 -15 39 -6
26 6 41 14 37 21 -4 6 6 1 21 -12 16 -12 33 -22 38 -22z m-1189 0 c3 -11 1
-18 -4 -14 -5 3 -9 12 -9 20 0 20 7 17 13 -6z m925 -20 c-14 -22 -24 -19 -15
5 4 8 11 15 17 15 6 0 6 -7 -2 -20z m872 0 c0 -5 -7 -10 -16 -10 -8 0 -12 5
-9 10 3 6 10 10 16 10 5 0 9 -4 9 -10z m-1826 -17 c4 -10 4 -14 0 -11 -4 4
-16 2 -28 -4 l-21 -11 20 21 c11 11 21 21 21 21 1 1 5 -7 8 -16z m911 7 c11
-5 14 -9 6 -9 -8 -1 -20 -9 -28 -18 -8 -10 -12 -12 -8 -5 4 7 0 12 -9 12 -9 0
-16 -5 -16 -11 0 -8 -5 -8 -15 1 -8 7 -15 18 -14 24 0 7 2 6 6 -1 5 -14 24
-18 22 -5 -4 24 17 29 56 12z m-102 -20 c3 6 4 5 3 -2 -2 -7 -15 -12 -30 -11
-14 1 -24 -2 -21 -6 2 -5 -13 -13 -35 -19 -29 -7 -40 -6 -43 2 -3 8 5 11 25 8
20 -3 29 -1 24 6 -8 14 45 32 61 20 7 -5 13 -5 16 2z m92 -30 c-3 -5 -14 -10
-23 -9 -14 0 -13 2 3 9 27 11 27 11 20 0z m-230 -10 c3 -6 -1 -7 -9 -4 -18 7
-21 14 -7 14 6 0 13 -4 16 -10z m138 -2 c4 -10 8 -9 16 2 9 13 11 13 11 -2 0
-19 -25 -25 -35 -8 -4 6 -11 7 -17 4 -7 -4 -8 -2 -4 4 9 16 23 15 29 0z m392
-17 c-3 -6 -14 -10 -23 -10 -15 1 -15 2 1 6 9 2 17 9 17 15 0 6 3 9 6 5 3 -3
3 -10 -1 -16z m-645 -21 c-14 -11 -34 -19 -45 -19 -14 0 -7 7 20 20 51 24 56
23 25 -1z m227 4 c-3 -3 -12 -4 -19 -1 -8 3 -5 6 6 6 11 1 17 -2 13 -5z m-273
-52 c5 -3 -9 -11 -30 -18 -21 -7 -40 -11 -43 -8 -3 3 5 7 17 11 12 3 22 10 22
15 0 5 -5 6 -12 2 -7 -4 -8 -3 -4 4 6 10 25 8 50 -6z m41 8 c-3 -5 -12 -7 -20
-3 -21 7 -19 13 6 13 11 0 18 -4 14 -10z m65 -5 c-7 -8 -20 -14 -29 -14 -13 1
-13 2 2 6 9 2 17 9 17 14 0 5 5 9 11 9 8 0 8 -5 -1 -15z m47 9 c-3 -3 -12 -4
-19 -1 -8 3 -5 6 6 6 11 1 17 -2 13 -5z m478 -34 c-3 -5 -12 -10 -18 -10 -7 0
-6 4 3 10 19 12 23 12 15 0z m-598 -6 c-3 -3 -12 -4 -19 -1 -8 3 -5 6 6 6 11
1 17 -2 13 -5z m548 -14 c-3 -5 -11 -10 -16 -10 -6 0 -7 5 -4 10 3 6 11 10 16
10 6 0 7 -4 4 -10z m30 -10 c-3 -5 -11 -10 -16 -10 -6 0 -7 5 -4 10 3 6 11 10
16 10 6 0 7 -4 4 -10z m870 -10 c3 -5 1 -10 -4 -10 -6 0 -11 5 -11 10 0 6 2
10 4 10 3 0 8 -4 11 -10z m-1085 -20 c0 -5 -5 -10 -11 -10 -5 0 -7 5 -4 10 3
6 8 10 11 10 2 0 4 -4 4 -10z m-151 -17 c0 -12 -2 -13 -6 -5 -4 10 -8 10 -19
1 -9 -7 -14 -8 -14 -1 0 10 15 19 33 21 4 1 7 -7 6 -16z m123 -10 c-6 -2 -10
-9 -7 -14 4 -5 -1 -6 -10 -2 -13 5 -14 7 -3 14 7 5 18 8 23 8 6 0 4 -3 -3 -6z
m-42 -17 c0 -3 -4 -8 -10 -11 -5 -3 -10 -1 -10 4 0 6 5 11 10 11 6 0 10 -2 10
-4z m-244 -44 c-8 -14 -45 -22 -52 -11 -3 5 4 9 15 9 11 0 23 5 26 11 4 6 9 8
12 5 3 -2 2 -9 -1 -14z m1934 -22 c8 -5 11 -10 5 -10 -5 0 -17 5 -25 10 -8 5
-10 10 -5 10 6 0 17 -5 25 -10z m-2273 -66 c-3 -3 -12 -4 -19 -1 -8 3 -5 6 6
6 11 1 17 -2 13 -5z m3 -44 c5 9 9 8 13 -3 4 -10 0 -14 -11 -13 -9 2 -17 8
-18 15 -2 8 -1 8 3 0 4 -8 7 -8 13 1z m2125 -60 c3 -5 1 -10 -4 -10 -6 0 -11
5 -11 10 0 6 2 10 4 10 3 0 8 -4 11 -10z m70 -10 c-3 -5 -11 -10 -16 -10 -6 0
-7 5 -4 10 3 6 11 10 16 10 6 0 7 -4 4 -10z m-1930 -10 c3 -5 -1 -10 -10 -10
-9 0 -13 5 -10 10 3 6 8 10 10 10 2 0 7 -4 10 -10z m1995 0 c0 -5 -7 -7 -15
-4 -8 4 -15 8 -15 10 0 2 7 4 15 4 8 0 15 -4 15 -10z m285 -41 c11 -16 1 -19
-13 -3 -7 8 -8 14 -3 14 5 0 13 -5 16 -11z m-2466 -68 c7 -12 7 -30 1 -52
l-10 -34 21 25 c11 14 18 19 14 13 -3 -7 -1 -13 5 -13 7 0 9 -7 6 -16 -3 -8
-2 -12 3 -9 5 3 12 1 16 -5 3 -5 1 -10 -4 -10 -6 0 -11 -9 -11 -20 0 -22 -26
-80 -36 -80 -3 0 -2 5 1 10 3 6 1 10 -4 10 -6 0 -11 7 -11 16 0 20 -40 115
-57 135 -12 14 -12 19 2 33 22 21 52 20 64 -3z m1386 -71 c3 -5 1 -10 -4 -10
-6 0 -11 5 -11 10 0 6 2 10 4 10 3 0 8 -4 11 -10z m-70 -61 c-4 -5 -1 -9 4 -9
16 0 13 -17 -3 -23 -9 -4 -13 4 -14 24 0 16 4 27 9 23 5 -3 7 -10 4 -15z m-95
-39 c0 -5 -5 -10 -11 -10 -5 0 -7 5 -4 10 3 6 8 10 11 10 2 0 4 -4 4 -10z
m237 -6 c-3 -3 -12 -4 -19 -1 -8 3 -5 6 6 6 11 1 17 -2 13 -5z m-1467 -24 c0
-5 -5 -10 -11 -10 -5 0 -7 5 -4 10 3 6 8 10 11 10 2 0 4 -4 4 -10z m1149 -56
c-9 -11 -8 -14 5 -14 9 0 16 6 16 13 0 8 3 7 10 -3 10 -16 -14 -50 -34 -50 -6
0 -4 5 4 11 11 8 7 9 -19 6 -31 -4 -32 -3 -16 9 10 8 16 17 12 20 -10 10 13
35 25 28 5 -3 4 -12 -3 -20z m111 -39 c-13 -14 -26 -23 -28 -20 -4 4 38 44 47
45 3 0 -6 -11 -19 -25z m-180 -26 c-16 -29 5 -55 29 -37 14 12 14 11 2 -5 -10
-13 -17 -15 -27 -6 -11 9 -14 9 -14 0 0 -18 -51 -34 -64 -21 -7 7 -7 11 -1 10
23 -5 34 1 28 16 -3 8 4 25 17 40 29 29 45 32 30 3z m137 -4 c0 -8 -3 -12 -7
-10 -10 6 -207 -198 -263 -273 -26 -35 -47 -60 -47 -54 0 17 87 129 134 172
25 23 43 46 40 51 -3 5 -2 8 3 7 4 -2 8 0 8 3 0 11 27 39 34 34 4 -2 27 16 51
40 24 25 45 45 45 45 1 0 2 -7 2 -15z m-237 -89 c0 -2 -8 -10 -17 -17 -16 -13
-17 -12 -4 4 13 16 21 21 21 13z m51 -29 c-10 -9 -11 -8 -5 6 3 10 9 15 12 12
3 -3 0 -11 -7 -18z m-127 -120 c-8 -23 -30 -28 -30 -7 0 10 6 16 13 13 7 -3
13 1 13 8 0 7 2 10 5 7 3 -3 3 -12 -1 -21z m1160 7 c31 -6 75 -55 88 -96 9
-29 8 -51 -2 -95 -17 -78 -49 -109 -123 -118 -66 -8 -99 -2 -140 27 -36 26
-74 105 -58 121 8 8 6 16 -6 29 -17 19 -5 26 14 7 8 -8 13 -7 18 2 5 7 4 10
-2 6 -6 -4 -16 0 -23 8 -10 12 -6 23 25 61 27 32 43 44 56 41 11 -3 17 -1 14
3 -11 17 57 19 139 4z m-1234 -106 c0 -19 -16 -5 -17 14 -2 18 0 20 7 8 5 -8
10 -18 10 -22z m-1933 -100 c-3 -8 -6 -5 -6 6 -1 11 2 17 5 13 3 -3 4 -12 1
-19z m-10 -50 c-3 -8 -6 -5 -6 6 -1 11 2 17 5 13 3 -3 4 -12 1 -19z m1876 -63
c-9 -19 -18 -33 -21 -31 -4 5 26 66 33 66 3 0 -3 -16 -12 -35z m-36 -91 c-8
-25 -15 -33 -26 -29 -12 5 -13 3 -5 -5 9 -9 9 -19 1 -41 -13 -35 -23 -37 -30
-7 -8 29 4 47 15 22 7 -16 7 -15 6 6 -3 29 34 112 43 98 4 -6 2 -26 -4 -44z
m2640 -36 c-3 -8 -6 -5 -6 6 -1 11 2 17 5 13 3 -3 4 -12 1 -19z m-2707 -137
c0 -6 -4 -13 -10 -16 -5 -3 -10 1 -10 9 0 9 5 16 10 16 6 0 10 -4 10 -9z m-24
-87 c-3 -9 -6 -20 -6 -25 0 -5 -5 -9 -10 -9 -7 0 -7 6 -1 19 6 10 7 21 4 25
-3 3 -1 6 6 6 8 0 11 -6 7 -16z m-16 -75 c0 -21 -4 -27 -15 -23 -13 5 -13 9
-3 22 7 9 8 13 2 9 -6 -3 -11 0 -11 7 0 7 6 13 14 13 8 0 13 -12 13 -28z m97
-157 c62 -55 263 -185 430 -277 124 -69 317 -149 443 -185 41 -11 92 -26 113
-32 l37 -11 -162 -166 c-90 -91 -178 -177 -196 -189 l-34 -24 -61 22 c-141 51
-364 167 -462 240 -27 21 -69 47 -93 59 -36 18 -49 33 -73 84 -16 34 -29 72
-29 83 0 44 -12 84 -24 77 -6 -4 -5 1 2 10 8 9 11 21 7 27 -12 19 -22 206 -12
217 4 3 2 12 -4 20 -9 10 -8 13 5 13 9 0 16 7 16 15 0 17 29 65 39 65 3 -1 30
-22 58 -48z m1306 -139 c-7 -2 -21 -2 -30 0 -10 3 -4 5 12 5 17 0 24 -2 18 -5z
m527 -56 c0 -2 -12 -14 -27 -28 -24 -22 -24 -13 0 19 8 11 27 17 27 9z m497
-30 c0 -8 -6 -14 -14 -14 -9 0 -10 4 -2 14 6 7 12 13 14 13 1 0 2 -6 2 -13z
m-214 -95 c-8 -34 -20 -62 -25 -62 -6 0 -8 6 -5 14 3 8 11 34 17 58 13 46 20
62 25 56 2 -2 -3 -32 -12 -66z m97 63 c0 -3 -8 -21 -19 -40 -14 -27 -20 -32
-25 -19 -3 9 -3 21 1 27 4 7 8 15 9 20 1 4 2 9 3 12 1 7 31 7 31 0z m103 -55
c3 -12 0 -17 -12 -15 -9 2 -24 4 -33 4 -10 1 -18 5 -18 10 0 11 19 9 38 -3 11
-7 12 -4 3 13 -9 17 -9 20 3 15 8 -3 16 -14 19 -24z m-23 -36 c6 -6 -2 -10
-24 -11 -27 0 -32 2 -23 12 13 14 32 14 47 -1z m-120 -1 c-1 -18 -18 -35 -24
-24 -4 6 -1 11 6 11 9 0 9 3 -2 10 -13 8 -12 10 3 10 9 0 17 -3 17 -7z m20
-32 c0 -6 -4 -12 -8 -15 -5 -3 -9 1 -9 9 0 8 4 15 9 15 4 0 8 -4 8 -9z m-100
-15 c0 -1 -5 -17 -11 -35 -11 -30 -32 -41 -44 -21 -3 5 0 7 9 4 10 -4 16 4 21
25 4 17 11 31 16 31 5 0 9 -2 9 -4z m-751 -60 c-2 -2 -22 -6 -44 -9 -28 -5
-34 -4 -20 3 19 8 73 14 64 6z m787 -18 c5 -7 3 -8 -6 -3 -10 6 -12 4 -7 -8 3
-9 -1 -21 -11 -29 -15 -11 -15 -11 -5 3 7 9 10 19 7 22 -6 5 3 27 11 27 2 0 7
-5 11 -12z m-88 -43 c-6 -14 -13 -23 -16 -21 -7 7 9 46 18 46 5 0 4 -11 -2
-25z m-2075 -30 c4 -8 35 -33 72 -55 36 -23 63 -46 60 -50 -3 -5 0 -12 6 -16
8 -4 9 -3 5 4 -11 17 6 15 34 -5 66 -47 338 -183 421 -212 l52 -17 -69 -56
c-79 -64 -107 -92 -110 -115 -2 -9 -10 -23 -20 -32 -9 -9 -14 -10 -10 -3 4 6
2 12 -3 12 -6 0 -11 -6 -11 -13 0 -15 -51 -67 -65 -67 -5 0 6 14 25 31 19 17
28 27 20 23 -8 -4 -25 -16 -37 -27 -22 -20 -22 -21 -5 -41 16 -20 16 -20 -1
-7 -16 13 -22 10 -52 -19 -19 -18 -33 -38 -32 -44 1 -6 -4 -10 -12 -8 -16 3
-43 -17 -36 -28 3 -4 -1 -10 -9 -13 -10 -4 -17 11 -26 56 -18 94 -30 128 -42
121 -7 -4 -8 -2 -4 5 4 6 1 23 -8 36 -30 46 -142 352 -133 362 4 4 80 -181 80
-195 0 -7 4 -9 9 -4 4 4 -12 59 -37 121 -42 105 -60 202 -35 186 22 -14 8 18
-20 47 -32 31 -35 38 -21 38 5 0 11 -7 14 -15z m1677 8 c0 -5 -16 -23 -34 -41
-28 -27 -33 -29 -29 -13 3 12 10 21 15 21 5 0 6 5 3 10 -4 6 -3 10 2 9 20 -3
34 2 28 11 -3 6 -1 10 4 10 6 0 11 -3 11 -7z m480 -53 c0 -5 -5 -10 -11 -10
-5 0 -7 5 -4 10 3 6 8 10 11 10 2 0 4 -4 4 -10z m-1160 -13 c0 -2 -10 -12 -22
-23 l-23 -19 19 23 c18 21 26 27 26 19z m1021 -24 c-15 -28 -40 -59 -41 -50 0
8 41 67 47 67 2 0 -1 -8 -6 -17z m113 -9 c-13 -19 -14 -28 -5 -37 8 -8 11 -7
11 6 0 9 4 17 8 17 4 0 8 -9 8 -19 0 -11 -4 -18 -7 -15 -4 2 -10 0 -14 -6 -10
-17 -25 -11 -18 8 5 15 4 16 -11 1 -9 -8 -19 -28 -22 -44 -6 -33 -11 -41 -20
-32 -4 4 -2 13 4 20 7 8 9 16 6 19 -7 8 55 108 67 108 5 0 2 -11 -7 -26z m-53
-7 c-10 -9 -11 -8 -5 6 3 10 9 15 12 12 3 -3 0 -11 -7 -18z m-961 -41 c0 -2
-8 -10 -17 -17 -16 -13 -17 -12 -4 4 13 16 21 21 21 13z m1007 -40 c-1 -6 -6
-14 -12 -18 -6 -5 -5 -8 3 -8 7 0 16 10 21 22 5 14 10 18 15 10 9 -15 -17 -42
-41 -43 -16 0 -16 -1 2 -9 11 -5 15 -9 8 -9 -7 -1 -10 -7 -7 -14 3 -8 -2 -14
-10 -14 -11 0 -14 8 -10 31 3 17 5 38 5 47 0 9 7 16 14 16 8 0 13 -5 12 -11z
m-176 -13 c-6 -10 -33 -43 -62 -73 -48 -52 -49 -52 -15 -9 39 51 79 99 84 99
1 0 -2 -8 -7 -17z m-21 -68 c0 -3 -18 -24 -39 -45 -22 -22 -41 -46 -44 -52 -2
-7 -7 -10 -11 -7 -4 3 14 29 40 58 44 49 54 57 54 46z m155 -15 c3 -5 1 -10
-4 -10 -6 0 -11 5 -11 10 0 6 2 10 4 10 3 0 8 -4 11 -10z m-745 -6 c0 -8 -19
-13 -24 -6 -3 5 1 9 9 9 8 0 15 -2 15 -3z m467 0 c-3 -3 -12 -4 -19 -1 -8 3
-5 6 6 6 11 1 17 -2 13 -5z m-502 -13 c3 -6 -4 -15 -15 -21 -20 -11 -21 -10
-10 9 12 23 16 25 25 12z m475 -4 c0 -2 -10 -12 -22 -23 l-23 -19 19 23 c18
21 26 27 26 19z m181 -24 c-25 -36 -69 -84 -56 -63 5 8 18 25 29 38 11 12 16
22 11 22 -8 0 25 29 33 30 2 0 -6 -12 -17 -27z m-171 -7 c0 -2 -7 -7 -16 -10
-8 -3 -12 -2 -9 4 6 10 25 14 25 6z m50 1 c0 -2 -10 -12 -22 -23 l-23 -19 19
23 c18 21 26 27 26 19z m-1198 -65 c-12 -9 -52 -41 -88 -69 -36 -29 -68 -53
-71 -53 -23 0 150 136 177 139 3 0 -5 -8 -18 -17z m1235 12 c-3 -3 -12 -4 -19
-1 -8 3 -5 6 6 6 11 1 17 -2 13 -5z m-137 -59 c-13 -14 -27 -25 -31 -25 -3 0
5 13 20 29 14 16 28 27 30 25 3 -2 -6 -15 -19 -29z m-25 5 c-3 -5 -11 -10 -16
-10 -6 0 -7 5 -4 10 3 6 11 10 16 10 6 0 7 -4 4 -10z m175 -15 c-7 -9 -15 -13
-18 -10 -3 2 1 11 8 20 7 9 15 13 18 10 3 -2 -1 -11 -8 -20z m43 8 c4 -3 -1
-16 -10 -27 -17 -20 -17 -20 0 -7 11 9 17 10 17 2 0 -20 -269 -281 -290 -281
-5 0 -11 -7 -14 -16 -3 -8 -11 -12 -17 -8 -7 4 -10 3 -7 -2 4 -5 -9 -27 -28
-49 -36 -42 -48 -36 -14 8 21 26 25 39 13 35 -5 -2 -9 0 -10 5 -2 4 -1 6 2 5
2 -2 12 7 21 20 9 13 22 21 29 18 7 -2 12 3 11 12 -1 11 6 17 19 17 13 0 20 7
20 20 0 14 7 20 22 20 11 0 25 4 29 8 5 4 0 5 -10 1 -16 -6 -17 -5 -6 16 7 12
21 25 31 27 10 3 19 10 19 15 0 5 -6 6 -12 1 -7 -4 14 23 47 59 32 37 61 65
64 63 2 -3 -2 -11 -9 -20 -8 -9 -8 -15 -2 -15 6 0 14 5 17 10 4 6 16 8 27 4
15 -4 19 -2 15 7 -2 8 -10 13 -16 11 -7 -1 -5 8 5 23 17 26 26 30 37 18z
m-1369 -44 c-10 -11 -28 -25 -39 -31 -11 -6 -4 4 15 20 41 36 51 41 24 11z
m1096 18 c0 -2 -12 -14 -27 -28 l-28 -24 24 28 c23 25 31 32 31 24z m80 -1 c0
-2 -8 -10 -17 -17 -16 -13 -17 -12 -4 4 13 16 21 21 21 13z m-60 -9 c0 -2 -12
-14 -27 -28 l-28 -24 24 28 c23 25 31 32 31 24z m20 -21 c0 -2 -8 -10 -17 -17
-16 -13 -17 -12 -4 4 13 16 21 21 21 13z m30 -39 c0 -2 -12 -14 -27 -28 l-28
-24 24 28 c23 25 31 32 31 24z m-79 -40 c-13 -12 -20 -15 -16 -7 14 26 28 41
33 35 3 -3 -5 -16 -17 -28z m92 3 c-10 -11 -19 -20 -21 -20 -1 0 2 9 8 20 6
11 15 20 20 20 6 0 2 -9 -7 -20z m-249 -25 c-4 -8 -11 -15 -16 -15 -6 0 -5 6
2 15 7 8 14 15 16 15 2 0 1 -7 -2 -15z m176 2 c0 -2 -12 -17 -26 -33 -27 -30
-23 -13 4 19 14 16 22 21 22 14z m185 -17 c3 -5 1 -10 -4 -10 -6 0 -11 5 -11
10 0 6 2 10 4 10 3 0 8 -4 11 -10z m-1495 -56 c0 -8 -19 -13 -24 -6 -3 5 1 9
9 9 8 0 15 -2 15 -3z m1271 -12 c-5 -10 -25 -27 -44 -37 -19 -10 -33 -24 -31
-30 3 -6 -12 -20 -33 -31 -21 -12 -69 -38 -106 -59 -67 -37 -98 -41 -62 -7 13
12 16 13 10 2 -5 -8 3 -5 16 8 45 44 129 102 141 100 7 -2 12 2 11 8 -1 7 5
11 15 10 9 0 17 4 17 9 1 24 17 36 31 24 11 -9 15 -8 20 5 3 9 10 16 15 16 6
0 6 -7 0 -18z m173 -34 c-3 -5 -9 -6 -14 -3 -4 3 -11 -2 -14 -11 -4 -9 -9 -14
-13 -11 -9 9 14 34 31 34 8 0 13 -4 10 -9z m-324 -138 c0 -5 -11 -15 -24 -22
-13 -7 -41 -25 -62 -39 -67 -43 -137 -82 -130 -71 3 6 0 13 -6 16 -11 5 -11 7
0 12 6 3 9 10 6 15 -3 6 5 8 20 5 20 -4 30 1 43 20 8 14 21 23 27 21 6 -2 17
3 25 10 7 8 20 12 27 9 7 -3 16 0 20 6 4 7 3 8 -4 4 -7 -4 -12 -5 -12 -2 0 3
12 12 27 20 28 14 43 13 43 -4z m58 -28 c-6 -7 -17 -11 -25 -8 -7 3 -20 -6
-29 -19 -18 -28 -31 -32 -31 -10 0 8 2 13 4 11 2 -2 20 12 40 30 26 24 39 30
44 22 4 -7 3 -18 -3 -26z m61 25 c-2 -1 -13 -9 -24 -17 -19 -14 -19 -14 -6 3
7 9 18 17 24 17 6 0 8 -1 6 -3z m-283 -33 c-11 -7 -22 -12 -25 -9 -2 3 4 12
15 19 10 8 21 12 24 9 3 -2 -4 -11 -14 -19z m-47 -25 c-16 -10 -23 -4 -14 10
3 6 11 8 17 5 6 -4 5 -9 -3 -15z m-2034 -19 c3 -5 1 -10 -4 -10 -6 0 -11 5
-11 10 0 6 2 10 4 10 3 0 8 -4 11 -10z m1940 -9 c3 -6 -4 -15 -15 -21 -19 -10
-20 -10 -8 9 15 24 15 24 23 12z m240 -26 c-39 -30 -48 -22 -10 10 15 14 31
23 34 20 3 -3 -8 -17 -24 -30z m-180 -5 c-3 -5 -1 -10 4 -10 6 0 11 -5 11 -11
0 -8 -6 -7 -17 2 -15 12 -16 12 -10 -3 4 -12 2 -15 -8 -12 -11 5 -12 10 -2 25
6 10 15 19 20 19 4 0 5 -4 2 -10z m-150 -18 c-3 -3 -11 0 -18 7 -9 10 -8 11 6
5 10 -3 15 -9 12 -12z m99 -30 c3 -5 -1 -9 -9 -9 -8 0 -15 4 -15 9 0 4 4 8 9
8 6 0 12 -4 15 -8z m86 -7 c-14 -8 -29 -14 -35 -14 -5 0 1 6 15 14 14 8 30 14
35 14 6 0 -1 -6 -15 -14z m-135 -14 c-3 -6 -14 -9 -25 -8 -24 2 -15 17 11 17
11 0 18 -4 14 -9z m325 -51 c0 -5 -5 -10 -11 -10 -5 0 -7 5 -4 10 3 6 8 10 11
10 2 0 4 -4 4 -10z m-1144 -67 c-3 -3 -12 -1 -19 5 -8 7 -18 8 -22 4 -5 -4 -5
-1 -1 6 5 9 12 9 27 1 12 -6 18 -13 15 -16z m47 -10 c-7 -2 -19 -2 -25 0 -7 3
-2 5 12 5 14 0 19 -2 13 -5z m100 -10 c-7 -2 -19 -2 -25 0 -7 3 -2 5 12 5 14
0 19 -2 13 -5z m454 -15 c-15 -10 -54 -10 -60 0 -3 4 12 7 34 7 22 1 33 -2 26
-7z m-397 -39 c20 -1 18 -3 -10 -9 -20 -5 -45 -7 -55 -5 -11 2 -36 4 -55 4
-23 1 -30 4 -22 10 8 4 37 7 65 5 29 -2 63 -4 77 -5z m-183 -25 c-3 -3 -12 -4
-19 -1 -8 3 -5 6 6 6 11 1 17 -2 13 -5z m463 -2 c0 -4 -12 -8 -27 -9 -24 -1
-25 -1 -8 7 26 11 35 12 35 2z m-480 -22 c0 -5 -2 -10 -4 -10 -3 0 -8 5 -11
10 -3 6 -1 10 4 10 6 0 11 -4 11 -10z m4 -119 c3 -4 -6 -6 -19 -3 -14 2 -25 6
-25 8 0 8 39 4 44 -5z m-7 -77 c-3 -3 -12 -4 -19 -1 -8 3 -5 6 6 6 11 1 17 -2
13 -5z m303 -26 c0 -4 -21 -8 -47 -7 -37 1 -42 3 -23 8 34 9 70 9 70 -1z
m-237 -5 c-7 -2 -19 -2 -25 0 -7 3 -2 5 12 5 14 0 19 -2 13 -5z m130 0 c-7 -2
-19 -2 -25 0 -7 3 -2 5 12 5 14 0 19 -2 13 -5z m342 -129 c-57 -12 -123 -19
-114 -10 2 2 26 7 54 11 27 3 51 8 54 11 2 2 18 4 35 3 23 -1 14 -5 -29 -15z
m-168 -10 c-3 -3 -12 -4 -19 -1 -8 3 -5 6 6 6 11 1 17 -2 13 -5z m1554 -317
c-10 -9 -11 -8 -5 6 3 10 9 15 12 12 3 -3 0 -11 -7 -18z m-26 -48 c-9 -17 -19
-29 -22 -26 -5 5 25 57 33 57 3 0 -3 -14 -11 -31z"/>
<path d="M1868 4813 c6 -2 18 -2 25 0 6 3 1 5 -13 5 -14 0 -19 -2 -12 -5z"/>
<path d="M1314 4164 c-4 -14 -3 -29 2 -34 5 -5 10 6 11 26 3 40 -4 45 -13 8z"/>
<path d="M3179 3463 c-6 -17 -7 -35 -1 -48 8 -16 10 -11 13 28 2 26 3 47 1 47
-1 0 -7 -12 -13 -27z"/>
<path d="M2120 1781 c0 -6 4 -13 10 -16 6 -3 7 1 4 9 -7 18 -14 21 -14 7z"/>
<path d="M2140 1745 c0 -5 5 -17 10 -25 5 -8 10 -10 10 -5 0 6 -5 17 -10 25
-5 8 -10 11 -10 5z"/>
<path d="M2171 1675 c1 -19 18 -51 18 -35 0 8 -4 22 -9 30 -5 8 -9 11 -9 5z"/>
<path d="M3811 1619 c-18 -16 -31 -32 -29 -34 2 -3 20 11 38 30 42 43 36 46
-9 4z"/>
<path d="M3832 1604 c-24 -24 -39 -44 -33 -44 6 0 11 4 11 9 0 5 8 12 18 15
12 4 61 68 49 65 -1 0 -21 -20 -45 -45z"/>
<path d="M3465 1320 c-3 -5 -1 -10 4 -10 6 0 11 5 11 10 0 6 -2 10 -4 10 -3 0
-8 -4 -11 -10z"/>
<path d="M1755 5070 c-3 -5 -1 -10 4 -10 6 0 11 5 11 10 0 6 -2 10 -4 10 -3 0
-8 -4 -11 -10z"/>
<path d="M1806 5072 c-3 -5 8 -8 24 -8 32 0 32 8 0 13 -10 1 -21 -1 -24 -5z"/>
<path d="M1895 5062 c7 -7 137 -4 144 4 3 2 -30 4 -72 3 -43 -1 -75 -4 -72 -7z"/>
<path d="M2143 5053 c9 -2 25 -2 35 0 9 3 1 5 -18 5 -19 0 -27 -2 -17 -5z"/>
<path d="M2278 5053 c7 -3 16 -2 19 1 4 3 -2 6 -13 5 -11 0 -14 -3 -6 -6z"/>
<path d="M2183 5023 c9 -2 17 -9 17 -14 0 -6 5 -7 11 -3 14 8 -8 24 -31 23
-11 -1 -10 -3 3 -6z"/>
<path d="M2335 5020 c-3 -5 -19 -8 -34 -5 -20 3 -28 1 -28 -10 0 -10 9 -14 29
-13 15 1 28 7 28 13 0 5 4 4 9 -4 7 -11 15 -11 45 -1 34 11 65 10 266 -6 113
-10 80 3 -40 15 -185 19 -268 23 -275 11z m46 -11 c-16 -6 -28 -6 -35 1 -7 7
1 10 25 9 32 0 33 -1 10 -10z"/>
<path d="M2247 4999 c4 -15 8 -17 14 -8 8 14 3 29 -11 29 -4 0 -6 -9 -3 -21z"/>
<path d="M2176 4993 c-5 -5 -90 -16 -134 -16 -18 0 -28 -4 -21 -7 6 -4 0 -9
-15 -12 -15 -3 -26 -1 -26 6 0 6 -4 5 -9 -3 -5 -7 -14 -10 -20 -7 -6 4 -11 2
-11 -3 0 -6 -8 -11 -17 -11 -15 0 -16 2 -3 10 13 8 12 10 -3 10 -10 0 -20 -7
-23 -15 -4 -8 -10 -15 -15 -15 -4 0 -5 8 -2 17 6 15 5 16 -9 3 -9 -9 -12 -18
-6 -21 5 -3 -1 -9 -14 -12 -36 -10 -41 -8 -27 11 13 15 12 16 -4 3 -35 -27 -1
-33 69 -12 38 11 98 26 134 33 36 7 67 15 70 18 3 3 28 6 55 6 85 3 95 4 95
12 0 7 -56 12 -64 5z"/>
<path d="M2763 4983 c9 -2 25 -2 35 0 9 3 1 5 -18 5 -19 0 -27 -2 -17 -5z"/>
<path d="M2833 4973 c9 -2 23 -2 30 0 6 3 -1 5 -18 5 -16 0 -22 -2 -12 -5z"/>
<path d="M1810 4960 c0 -6 7 -10 15 -10 8 0 15 2 15 4 0 2 -7 6 -15 10 -8 3
-15 1 -15 -4z"/>
<path d="M2711 4954 c0 -11 3 -14 6 -6 3 7 2 16 -1 19 -3 4 -6 -2 -5 -13z"/>
<path d="M2898 4963 c7 -3 16 -2 19 1 4 3 -2 6 -13 5 -11 0 -14 -3 -6 -6z"/>
<path d="M2958 4953 c7 -3 16 -2 19 1 4 3 -2 6 -13 5 -11 0 -14 -3 -6 -6z"/>
<path d="M2248 4943 c7 -3 16 -2 19 1 4 3 -2 6 -13 5 -11 0 -14 -3 -6 -6z"/>
<path d="M3018 4943 c7 -3 16 -2 19 1 4 3 -2 6 -13 5 -11 0 -14 -3 -6 -6z"/>
<path d="M3078 4933 c7 -3 16 -2 19 1 4 3 -2 6 -13 5 -11 0 -14 -3 -6 -6z"/>
<path d="M2638 4923 c7 -3 16 -2 19 1 4 3 -2 6 -13 5 -11 0 -14 -3 -6 -6z"/>
<path d="M3143 4923 c9 -2 23 -2 30 0 6 3 -1 5 -18 5 -16 0 -22 -2 -12 -5z"/>
<path d="M3210 4910 c34 -11 60 -11 35 0 -11 5 -29 8 -40 8 -16 0 -15 -2 5 -8z"/>
<path d="M3278 4893 c7 -3 16 -2 19 1 4 3 -2 6 -13 5 -11 0 -14 -3 -6 -6z"/>
<path d="M1905 4880 c6 -10 4 -12 -9 -7 -10 4 -15 3 -11 -3 8 -13 35 -13 35
-1 0 6 -5 13 -12 17 -7 5 -8 3 -3 -6z"/>
<path d="M1220 4866 c0 -8 4 -17 9 -20 5 -4 7 3 4 14 -6 23 -13 26 -13 6z"/>
<path d="M3017 4863 c6 -15 13 -16 31 -4 10 6 7 10 -11 13 -18 4 -24 1 -20 -9z"/>
<path d="M1145 4851 c-3 -5 -2 -12 3 -15 5 -3 9 1 9 9 0 17 -3 19 -12 6z"/>
<path d="M1173 4810 c1 -22 -3 -34 -10 -33 -14 3 -9 -47 8 -79 12 -22 11 -22
-6 -8 -17 14 -18 14 -6 -7 6 -13 16 -23 21 -23 14 0 12 34 -2 49 -11 10 -10
14 5 22 9 6 17 15 17 22 0 8 -3 8 -9 -1 -7 -11 -9 -11 -14 2 -3 8 -1 16 4 18
7 2 7 15 0 38 l-10 35 2 -35z"/>
<path d="M2472 4829 c2 -11 -13 -15 -62 -16 -45 -2 -59 1 -45 7 19 8 19 9 -2
9 -13 1 -23 -5 -23 -12 0 -15 -59 -22 -114 -15 -10 2 -21 -3 -23 -10 -4 -9 10
-11 59 -7 34 2 98 1 141 -3 43 -5 80 -4 83 0 3 4 15 7 27 7 17 -1 18 -2 5 -6
-10 -2 -18 -9 -18 -14 0 -13 16 -11 32 4 7 7 39 14 72 15 32 1 61 4 64 7 5 5
-82 8 -150 5 -21 -1 -38 3 -38 8 0 5 45 10 102 11 56 1 104 4 107 6 2 3 -39 5
-92 5 -52 0 -103 3 -112 6 -10 4 -15 2 -13 -7z m-49 -36 c-7 -2 -21 -2 -30 0
-10 3 -4 5 12 5 17 0 24 -2 18 -5z"/>
<path d="M1490 4820 c-9 -6 -10 -10 -3 -10 6 0 15 5 18 10 8 12 4 12 -15 0z"/>
<path d="M2995 4810 c-3 -6 1 -7 9 -4 18 7 21 14 7 14 -6 0 -13 -4 -16 -10z"/>
<path d="M1421 4791 c-10 -7 -7 -9 12 -8 14 1 23 5 20 10 -6 9 -15 9 -32 -2z"/>
<path d="M2735 4791 c13 -6 -1 -9 -44 -10 -35 0 -66 -3 -69 -6 -3 -3 28 -5 69
-5 79 0 119 12 77 23 -33 10 -58 7 -33 -2z"/>
<path d="M2805 4789 c-4 -6 -4 -13 -1 -16 3 -4 6 0 6 7 0 9 5 7 15 -6 14 -18
14 -18 8 4 -6 24 -18 29 -28 11z"/>
<path d="M3029 4789 c-5 -3 9 -6 33 -7 47 -2 185 -30 153 -31 -11 -1 -49 4
-85 10 -45 7 -66 7 -68 0 -4 -13 -42 -15 -42 -3 0 5 -21 9 -47 10 l-48 0 48
-13 c27 -7 86 -19 132 -26 46 -7 81 -17 79 -21 -3 -4 0 -8 6 -8 7 0 10 6 8 13
-3 6 -32 16 -66 21 -34 5 -62 12 -62 16 0 9 103 -5 126 -18 35 -19 218 -46
209 -31 -4 5 -17 9 -30 9 -13 0 -27 5 -30 10 -5 8 -12 7 -23 -2 -12 -10 -14
-10 -8 0 8 13 -11 17 -69 14 -22 -1 -26 1 -15 8 22 13 6 23 -63 38 -73 15
-124 20 -138 11z"/>
<path d="M3260 4796 c0 -2 9 -6 20 -9 11 -3 18 -1 14 4 -5 9 -34 13 -34 5z"/>
<path d="M2285 4771 c-18 -7 -17 -8 7 -13 19 -4 25 -1 21 9 -3 7 -6 13 -7 12
0 0 -10 -4 -21 -8z"/>
<path d="M2870 4771 c0 -5 -10 -13 -22 -19 -21 -11 -21 -12 -3 -10 11 2 26 -1
34 -6 9 -6 12 -5 7 2 -3 6 1 15 10 20 14 8 14 10 -5 15 -11 3 -21 2 -21 -2z"/>
<path d="M3456 4767 c3 -10 9 -15 12 -12 3 3 0 11 -7 18 -10 9 -11 8 -5 -6z"/>
<path d="M3597 4769 c7 -7 15 -10 18 -7 3 3 -2 9 -12 12 -14 6 -15 5 -6 -5z"/>
<path d="M2348 4763 c7 -3 16 -2 19 1 4 3 -2 6 -13 5 -11 0 -14 -3 -6 -6z"/>
<path d="M3265 4760 c-16 -7 -17 -9 -3 -9 9 -1 20 4 23 9 7 11 7 11 -20 0z"/>
<path d="M3310 4760 c-8 -5 -10 -10 -5 -10 6 0 17 5 25 10 8 5 11 10 5 10 -5
0 -17 -5 -25 -10z"/>
<path d="M3352 4755 c-32 -17 -36 -23 -15 -21 10 0 21 5 25 10 4 6 12 5 21 -3
12 -9 17 -9 23 0 4 7 3 9 -4 5 -6 -3 -14 0 -19 7 -6 10 -13 11 -31 2z"/>
<path d="M2773 4753 c9 -2 25 -2 35 0 9 3 1 5 -18 5 -19 0 -27 -2 -17 -5z"/>
<path d="M2643 4743 c9 -2 23 -2 30 0 6 3 -1 5 -18 5 -16 0 -22 -2 -12 -5z"/>
<path d="M2908 4743 c6 -2 18 -2 25 0 6 3 1 5 -13 5 -14 0 -19 -2 -12 -5z"/>
<path d="M1907 4724 c-32 -17 -34 -24 -6 -24 11 0 18 4 14 9 -3 5 5 11 17 13
13 2 18 6 13 10 -6 3 -22 0 -38 -8z"/>
<path d="M2518 4733 c6 -2 18 -2 25 0 6 3 1 5 -13 5 -14 0 -19 -2 -12 -5z"/>
<path d="M1680 4720 c8 -5 22 -9 30 -9 10 0 8 3 -5 9 -27 12 -43 12 -25 0z"/>
<path d="M2035 4720 c-8 -13 5 -13 25 0 13 8 13 10 -2 10 -9 0 -20 -4 -23 -10z"/>
<path d="M2768 4723 c7 -3 16 -2 19 1 4 3 -2 6 -13 5 -11 0 -14 -3 -6 -6z"/>
<path d="M2528 4713 c6 -2 18 -2 25 0 6 3 1 5 -13 5 -14 0 -19 -2 -12 -5z"/>
<path d="M3700 4715 c0 -2 55 -32 123 -66 132 -67 235 -132 244 -155 3 -8 10
-11 15 -8 6 4 44 -27 87 -67 l76 -74 -75 78 c-41 42 -80 77 -87 77 -7 0 -13 4
-13 9 0 14 -110 86 -205 134 -99 49 -165 78 -165 72z"/>
<path d="M1336 4703 c5 -5 12 -12 16 -18 4 -6 8 -2 8 8 0 9 -7 17 -17 17 -9 0
-12 -3 -7 -7z"/>
<path d="M1950 4700 c-9 -6 -10 -10 -3 -10 6 0 15 5 18 10 8 12 4 12 -15 0z"/>
<path d="M3210 4701 c0 -7 151 -41 198 -44 12 -1 22 -5 22 -10 0 -5 -9 -7 -20
-4 -11 3 -18 1 -14 -4 8 -14 34 -11 40 4 5 15 82 -5 229 -57 38 -14 71 -23 74
-21 4 4 -10 11 -99 44 -85 31 -158 50 -276 71 -60 10 -119 21 -131 24 -13 3
-23 1 -23 -3z"/>
<path d="M1293 4675 c-19 -21 -16 -27 7 -13 11 7 20 16 20 20 0 12 -14 9 -27
-7z"/>
<path d="M1898 4678 c-2 -5 -13 -10 -25 -11 -12 0 -20 -4 -17 -8 6 -11 46 -2
61 14 12 12 12 14 -1 14 -9 0 -17 -4 -18 -9z"/>
<path d="M3560 4669 c0 -5 5 -7 10 -4 6 3 10 -2 10 -12 0 -15 2 -16 10 -3 6 9
5 17 -3 22 -17 11 -27 10 -27 -3z"/>
<path d="M2257 4643 c-11 -11 -17 -13 -17 -5 0 7 -5 12 -11 12 -5 0 -8 -4 -5
-9 5 -8 -28 -24 -45 -23 -3 1 -6 -6 -6 -14 0 -12 4 -11 19 2 10 9 37 17 59 18
32 1 43 6 45 19 3 22 -17 22 -39 0z"/>
<path d="M1176 4631 c-4 -5 -1 -11 6 -13 8 -3 9 -12 1 -34 -9 -26 -8 -29 13
-30 20 -2 22 1 13 23 -5 14 -7 29 -3 34 3 5 0 9 -6 9 -6 0 -8 5 -5 10 3 6 2
10 -4 10 -5 0 -12 -4 -15 -9z"/>
<path d="M3486 4621 c-3 -5 4 -11 16 -14 30 -8 35 -1 9 12 -11 6 -22 7 -25 2z"/>
<path d="M3318 4613 c7 -3 16 -2 19 1 4 3 -2 6 -13 5 -11 0 -14 -3 -6 -6z"/>
<path d="M1231 4598 c-1 -20 14 -24 25 -6 4 6 3 8 -4 4 -5 -3 -13 0 -15 6 -3
8 -6 6 -6 -4z"/>
<path d="M3190 4606 c0 -2 13 -6 29 -8 17 -2 28 -1 25 4 -5 8 -54 12 -54 4z"/>
<path d="M1678 4593 c-10 -2 -18 -9 -18 -14 0 -5 -7 -9 -17 -9 -9 0 -14 -2
-11 -5 10 -10 65 7 65 21 0 8 -1 13 -1 13 -1 -1 -9 -3 -18 -6z"/>
<path d="M3578 4582 c-12 -15 -11 -16 5 -3 9 7 17 9 17 3 0 -5 9 -12 20 -15
26 -7 25 -3 -4 16 -22 15 -25 15 -38 -1z"/>
<path d="M1454 4575 c-11 -8 -14 -15 -6 -15 6 0 12 -7 12 -16 0 -8 4 -13 9
-10 5 4 8 14 7 24 -2 9 2 20 8 24 7 5 7 8 0 8 -5 0 -19 -7 -30 -15z"/>
<path d="M1557 4583 c-12 -12 -7 -23 11 -24 14 0 14 -2 -3 -9 -16 -7 -17 -9
-3 -9 9 -1 19 3 23 9 3 5 12 7 20 3 18 -6 20 13 3 23 -7 5 -9 2 -4 -7 4 -8 1
-6 -7 4 -15 18 -29 22 -40 10z"/>
<path d="M1628 4583 c7 -3 16 -2 19 1 4 3 -2 6 -13 5 -11 0 -14 -3 -6 -6z"/>
<path d="M3326 4581 c-4 -5 3 -7 14 -4 23 6 26 13 6 13 -8 0 -17 -4 -20 -9z"/>
<path d="M3370 4578 c0 -5 9 -12 20 -15 24 -6 30 -5 30 5 0 11 -50 22 -50 10z"/>
<path d="M1518 4573 c7 -3 16 -2 19 1 4 3 -2 6 -13 5 -11 0 -14 -3 -6 -6z"/>
<path d="M1235 4560 c3 -5 8 -10 11 -10 2 0 4 5 4 10 0 6 -5 10 -11 10 -5 0
-7 -4 -4 -10z"/>
<path d="M1485 4560 c-3 -5 1 -10 10 -10 9 0 13 5 10 10 -3 6 -8 10 -10 10 -2
0 -7 -4 -10 -10z"/>
<path d="M3650 4561 c0 -5 14 -15 30 -23 17 -7 30 -16 30 -20 0 -5 6 -8 13 -8
7 0 20 -9 30 -20 9 -11 25 -20 34 -20 14 0 13 3 -6 16 -15 11 -19 20 -12 27
10 10 33 -1 106 -49 16 -11 26 -13 22 -6 -5 6 -4 12 2 12 6 0 11 -4 11 -8 0
-8 43 -32 57 -32 7 0 -88 65 -97 66 -13 1 -86 40 -99 52 -7 7 -16 10 -19 7 -4
-3 -1 -9 5 -13 7 -5 9 -13 4 -21 -7 -11 -14 -10 -37 6 -45 31 -74 45 -74 34z
m235 -81 c3 -5 1 -10 -4 -10 -6 0 -11 5 -11 10 0 6 2 10 4 10 3 0 8 -4 11 -10z"/>
<path d="M3435 4550 c-7 -12 2 -12 30 0 19 8 19 9 -2 9 -12 1 -25 -3 -28 -9z"/>
<path d="M3915 4550 c3 -5 8 -10 11 -10 2 0 4 5 4 10 0 6 -5 10 -11 10 -5 0
-7 -4 -4 -10z"/>
<path d="M3947 4544 c-3 -3 -3 -13 0 -21 5 -12 7 -12 14 -2 6 10 10 9 15 -6 8
-21 34 -44 46 -41 4 0 14 -9 23 -20 8 -12 23 -24 35 -27 17 -4 18 -2 9 14 -5
11 -27 30 -47 44 -20 13 -49 33 -63 44 -14 11 -29 18 -32 15z"/>
<path d="M1715 4530 c-3 -6 1 -7 9 -4 18 7 21 14 7 14 -6 0 -13 -4 -16 -10z"/>
<path d="M3550 4526 c0 -2 9 -6 20 -9 11 -3 18 -1 14 4 -5 9 -34 13 -34 5z"/>
<path d="M1929 4503 c-13 -16 -12 -17 4 -4 9 7 17 15 17 17 0 8 -8 3 -21 -13z"/>
<path d="M1885 4490 c-3 -6 1 -7 9 -4 18 7 21 14 7 14 -6 0 -13 -4 -16 -10z"/>
<path d="M1645 4480 c3 -5 8 -10 11 -10 2 0 4 5 4 10 0 6 -5 10 -11 10 -5 0
-7 -4 -4 -10z"/>
<path d="M1675 4470 c3 -5 8 -10 11 -10 2 0 4 5 4 10 0 6 -5 10 -11 10 -5 0
-7 -4 -4 -10z"/>
<path d="M1818 4462 c-12 -13 -14 -22 -7 -32 9 -12 10 -11 5 4 -5 14 -2 17 12
14 12 -4 18 1 18 13 0 23 -6 23 -28 1z"/>
<path d="M1575 4460 c-8 -13 5 -13 25 0 13 8 13 10 -2 10 -9 0 -20 -4 -23 -10z"/>
<path d="M4090 4466 c0 -2 8 -10 18 -17 15 -13 16 -12 3 4 -13 16 -21 21 -21
13z"/>
<path d="M1985 4450 c-3 -6 1 -7 9 -4 18 7 21 14 7 14 -6 0 -13 -4 -16 -10z"/>
<path d="M3635 4446 c14 -10 22 -11 27 -3 5 8 12 6 26 -6 10 -9 33 -20 50 -23
17 -4 30 -10 27 -14 -8 -13 24 -33 41 -26 15 6 15 4 3 -11 -9 -11 -10 -14 -1
-9 6 4 12 3 12 -2 0 -16 31 -23 46 -11 9 7 14 8 14 1 0 -5 9 -8 20 -5 32 8 13
22 -25 18 -19 -2 -38 2 -42 8 -3 6 -1 7 5 3 7 -4 12 -2 12 3 0 6 -7 11 -15 11
-8 0 -15 5 -15 11 0 5 -4 7 -10 4 -5 -3 -10 -2 -10 3 0 14 -95 53 -143 58 -39
5 -41 4 -22 -10z"/>
<path d="M1540 4439 c0 -5 5 -7 10 -4 6 3 10 8 10 11 0 2 -4 4 -10 4 -5 0 -10
-5 -10 -11z"/>
<path d="M1950 4446 c0 -2 7 -9 15 -16 13 -11 14 -10 9 4 -5 14 -24 23 -24 12z"/>
<path d="M3828 4434 c9 -8 20 -14 24 -14 4 0 17 -8 28 -17 11 -10 26 -18 33
-18 7 -1 11 -7 9 -15 -2 -8 0 -12 4 -8 4 4 14 2 22 -5 13 -10 14 -9 4 9 -6 12
-25 27 -42 34 -20 8 -27 16 -20 20 9 5 9 9 1 14 -6 4 -11 2 -11 -4 0 -6 -5 -8
-10 -5 -6 4 -8 10 -6 14 3 4 -8 8 -24 8 -26 0 -27 -2 -12 -13z"/>
<path d="M4270 4430 c6 -11 16 -20 22 -20 6 0 3 9 -7 20 -10 11 -20 20 -22 20
-2 0 1 -9 7 -20z"/>
<path d="M1515 4430 c3 -5 8 -10 11 -10 2 0 4 5 4 10 0 6 -5 10 -11 10 -5 0
-7 -4 -4 -10z"/>
<path d="M1750 4430 c-9 -6 -10 -10 -3 -10 6 0 15 5 18 10 8 12 4 12 -15 0z"/>
<path d="M1900 4430 c-13 -8 -12 -10 3 -10 9 0 17 5 17 10 0 12 -1 12 -20 0z"/>
<path d="M1765 4405 c-25 -12 -26 -14 -9 -15 12 0 27 7 34 15 15 18 14 18 -25
0z"/>
<path d="M4065 4411 c-3 -5 -2 -12 3 -15 5 -3 9 1 9 9 0 17 -3 19 -12 6z"/>
<path d="M1705 4390 c-4 -6 -12 -7 -18 -3 -7 4 -6 -1 2 -10 10 -13 17 -15 27
-6 8 6 11 15 8 20 -7 12 -11 11 -19 -1z"/>
<path d="M4050 4376 c0 -2 7 -7 16 -10 8 -3 12 -2 9 4 -6 10 -25 14 -25 6z"/>
<path d="M4152 4344 c10 -10 20 -16 22 -13 3 3 -5 11 -17 18 -21 13 -21 12 -5
-5z"/>
<path d="M4109 4317 c33 -35 56 -52 32 -24 -6 8 -9 17 -6 20 3 4 2 5 -2 2 -3
-3 -18 5 -32 17 -14 13 -10 6 8 -15z"/>
<path d="M4030 4315 c13 -14 26 -25 28 -25 3 0 -5 11 -18 25 -13 14 -26 25
-28 25 -3 0 5 -11 18 -25z"/>
<path d="M1555 4320 c-16 -7 -17 -9 -3 -9 9 -1 20 4 23 9 7 11 7 11 -20 0z"/>
<path d="M3906 4309 c3 -5 10 -6 16 -3 6 4 14 0 19 -7 4 -7 11 -10 15 -6 11
10 -2 19 -31 22 -14 2 -23 -1 -19 -6z"/>
<path d="M4285 4290 c10 -11 20 -20 23 -20 3 0 -3 9 -13 20 -10 11 -20 20 -23
20 -3 0 3 -9 13 -20z"/>
<path d="M4160 4296 c0 -12 50 -34 55 -26 4 6 1 9 -7 8 -7 -2 -12 2 -11 7 1 6
-7 12 -18 12 -10 1 -19 0 -19 -1z"/>
<path d="M4030 4286 c0 -2 8 -10 18 -17 15 -13 16 -12 3 4 -13 16 -21 21 -21
13z"/>
<path d="M3989 4256 c14 -15 26 -26 28 -26 9 0 -24 40 -37 45 -8 4 -4 -5 9
-19z"/>
<path d="M4134 4259 c-4 -7 -3 -9 4 -5 6 3 15 -2 21 -11 6 -10 11 -13 11 -7 0
20 -27 37 -36 23z"/>
<path d="M4240 4256 c0 -2 8 -10 18 -17 15 -13 16 -12 3 4 -13 16 -21 21 -21
13z"/>
<path d="M4210 4246 c0 -2 7 -9 15 -16 13 -11 14 -10 9 4 -5 14 -24 23 -24 12z"/>
<path d="M4323 4231 c0 -11 5 -18 9 -15 4 3 5 11 1 19 -7 21 -12 19 -10 -4z"/>
<path d="M4124 4192 c20 -24 34 -47 30 -53 -7 -11 23 -49 39 -49 6 0 0 11 -12
24 -12 13 -18 25 -13 27 5 2 -11 24 -36 49 l-45 45 37 -43z"/>
<path d="M4195 4200 c10 -11 20 -20 23 -20 3 0 -3 9 -13 20 -10 11 -20 20 -23
20 -3 0 3 -9 13 -20z"/>
<path d="M4273 4191 c8 -18 18 -31 23 -29 5 2 7 8 5 13 -2 6 -4 16 -4 23 0 6
-3 10 -5 7 -3 -3 -11 0 -19 6 -11 10 -11 6 0 -20z"/>
<path d="M3218 4183 c7 -3 16 -2 19 1 4 3 -2 6 -13 5 -11 0 -14 -3 -6 -6z"/>
<path d="M1475 4170 c3 -5 8 -10 11 -10 2 0 4 5 4 10 0 6 -5 10 -11 10 -5 0
-7 -4 -4 -10z"/>
<path d="M2930 4176 c0 -2 6 -9 13 -15 10 -8 14 -7 14 4 0 8 -6 15 -14 15 -7
0 -13 -2 -13 -4z"/>
<path d="M3960 4161 c45 -39 80 -63 80 -54 -1 9 -27 29 -75 58 l-30 17 25 -21z"/>
<path d="M4090 4145 c13 -14 26 -25 28 -25 3 0 -5 11 -18 25 -13 14 -26 25
-28 25 -3 0 5 -11 18 -25z"/>
<path d="M4234 4136 c1 -8 5 -18 8 -22 4 -3 5 1 4 10 -1 8 -5 18 -8 22 -4 3
-5 -1 -4 -10z"/>
<path d="M4305 4140 c-3 -5 -1 -10 4 -10 6 0 11 5 11 10 0 6 -2 10 -4 10 -3 0
-8 -4 -11 -10z"/>
<path d="M4380 4145 c0 -5 5 -17 10 -25 5 -8 10 -10 10 -5 0 6 -5 17 -10 25
-5 8 -10 11 -10 5z"/>
<path d="M2870 4120 c-13 -9 -13 -10 0 -10 8 0 22 5 30 10 13 9 13 10 0 10 -8
0 -22 -5 -30 -10z"/>
<path d="M4318 4113 c6 -2 10 -9 6 -14 -3 -5 0 -9 6 -9 6 0 8 -4 5 -10 -3 -5
-1 -10 4 -10 14 0 14 6 1 31 -6 10 -16 19 -23 18 -9 0 -9 -2 1 -6z"/>
<path d="M2745 4070 c-3 -6 1 -7 9 -4 18 7 21 14 7 14 -6 0 -13 -4 -16 -10z"/>
<path d="M4140 4066 c0 -2 8 -10 18 -17 15 -13 16 -12 3 4 -13 16 -21 21 -21
13z"/>
<path d="M4280 4066 c0 -2 8 -10 18 -17 15 -13 16 -12 3 4 -13 16 -21 21 -21
13z"/>
<path d="M4430 4041 c0 -6 4 -13 10 -16 6 -3 7 1 4 9 -7 18 -14 21 -14 7z"/>
<path d="M4372 4008 c11 -30 22 -35 34 -16 5 7 3 8 -6 3 -10 -6 -12 -4 -7 9 5
11 3 15 -5 10 -7 -5 -9 -2 -6 8 4 8 1 15 -7 15 -10 0 -10 -7 -3 -29z"/>
<path d="M4237 4023 c-4 -3 3 -22 15 -42 13 -20 22 -37 20 -38 -1 -2 -2 -9 -2
-15 0 -9 3 -8 10 2 5 9 5 19 -2 27 -6 7 -7 13 -2 13 4 0 -2 10 -14 23 -12 13
-19 27 -15 30 3 4 4 7 1 7 -2 0 -8 -3 -11 -7z"/>
<path d="M949 3983 c-13 -16 -12 -17 4 -4 9 7 17 15 17 17 0 8 -8 3 -21 -13z"/>
<path d="M2592 3991 c2 -7 -3 -16 -11 -19 -9 -3 -11 0 -6 8 5 9 4 11 -4 6 -6
-4 -8 -12 -5 -18 5 -7 1 -9 -9 -5 -11 4 -14 2 -10 -9 3 -7 14 -14 26 -14 11 0
17 3 14 7 -4 3 1 12 11 19 14 10 15 15 4 26 -11 11 -13 11 -10 -1z"/>
<path d="M4554 3965 c18 -50 26 -54 14 -6 -6 23 -14 41 -18 41 -4 0 -2 -16 4
-35z"/>
<path d="M4115 3970 c10 -11 20 -20 23 -20 3 0 -3 9 -13 20 -10 11 -20 20 -23
20 -3 0 3 -9 13 -20z"/>
<path d="M4156 3968 c10 -14 21 -24 23 -22 3 3 -6 15 -18 27 l-24 22 19 -27z"/>
<path d="M4435 3963 c-5 -15 -4 -16 7 -5 10 10 15 8 26 -10 9 -15 11 -17 8 -5
-3 10 -6 23 -6 28 0 16 -28 10 -35 -8z"/>
<path d="M4220 3941 c0 -5 5 -13 10 -16 6 -4 9 -9 6 -13 -2 -4 5 -16 15 -26
22 -22 24 -15 7 17 -15 28 -38 51 -38 38z"/>
<path d="M3100 3926 c0 -2 7 -7 16 -10 8 -3 12 -2 9 4 -6 10 -25 14 -25 6z"/>
<path d="M857 3879 c-41 -47 -120 -159 -113 -159 2 0 28 33 57 73 28 39 63 84
77 100 14 15 23 27 20 27 -4 0 -22 -18 -41 -41z"/>
<path d="M4440 3880 c6 -11 13 -20 16 -20 2 0 0 9 -6 20 -6 11 -13 20 -16 20
-2 0 0 -9 6 -20z"/>
<path d="M4586 3865 c4 -8 10 -15 15 -15 4 0 6 7 3 15 -4 8 -10 15 -15 15 -4
0 -6 -7 -3 -15z"/>
<path d="M4293 3847 c9 -15 15 -27 12 -27 -4 0 3 -13 14 -29 12 -16 21 -33 21
-38 0 -5 7 -18 15 -29 14 -18 15 -17 6 8 -17 47 -60 126 -73 134 -7 5 -5 -4 5
-19z"/>
<path d="M4467 3839 c7 -7 15 -10 18 -7 3 3 -2 9 -12 12 -14 6 -15 5 -6 -5z"/>
<path d="M4605 3823 c8 -20 15 -46 41 -145 10 -38 19 -66 21 -64 2 2 -1 34 -8
72 -6 38 -12 75 -12 82 0 6 -4 12 -8 12 -5 0 -6 6 -3 14 3 8 0 17 -5 21 -6 3
-9 11 -6 16 4 5 -1 9 -10 9 -12 0 -15 -5 -10 -17z"/>
<path d="M4226 3815 c4 -8 11 -15 16 -15 6 0 5 6 -2 15 -7 8 -14 15 -16 15 -2
0 -1 -7 2 -15z"/>
<path d="M4253 3793 c-9 -3 -8 -14 2 -43 7 -21 23 -83 35 -136 11 -54 22 -100
24 -101 1 -2 24 -6 49 -9 32 -5 47 -3 47 5 0 6 -15 11 -34 11 -19 0 -39 7 -47
17 -12 14 -12 16 0 8 11 -6 13 -3 7 16 -5 13 -10 40 -12 59 l-5 35 15 -25 c14
-24 15 -24 13 -2 -1 12 -9 25 -19 28 -14 4 -16 9 -8 24 13 25 13 33 -2 24 -8
-5 -9 -2 -5 10 4 10 3 15 -4 11 -6 -4 -8 2 -4 18 5 18 1 27 -17 39 -13 8 -28
13 -35 11z m47 -37 c0 -8 -4 -17 -8 -20 -4 -2 -8 4 -8 15 0 10 4 19 8 19 4 0
8 -6 8 -14z"/>
<path d="M688 3643 c-31 -47 -50 -83 -44 -83 2 0 13 15 24 33 11 19 27 46 37
60 9 15 15 27 12 27 -2 0 -15 -17 -29 -37z"/>
<path d="M4520 3670 c0 -5 5 -10 10 -10 6 0 10 5 10 10 0 6 -4 10 -10 10 -5 0
-10 -4 -10 -10z"/>
<path d="M4386 3641 c-4 -6 -2 -11 4 -11 6 0 9 -4 5 -9 -3 -5 -1 -12 5 -16 12
-8 13 15 1 34 -6 9 -11 10 -15 2z"/>
<path d="M4534 3634 c3 -9 6 -22 6 -30 0 -8 5 -14 11 -14 7 0 8 7 4 18 -4 9
-8 23 -8 30 0 6 -5 12 -10 12 -5 0 -6 -7 -3 -16z"/>
<path d="M4340 3592 c0 -5 7 -9 15 -9 8 0 12 4 9 9 -3 4 -9 8 -15 8 -5 0 -9
-4 -9 -8z"/>
<path d="M4409 3577 c6 -8 7 -18 3 -22 -4 -5 -2 -5 5 -1 14 8 6 36 -9 36 -7 0
-6 -5 1 -13z"/>
<path d="M4550 3545 c0 -19 2 -35 4 -35 2 0 6 16 8 35 2 19 0 35 -4 35 -4 0
-8 -16 -8 -35z"/>
<path d="M4357 3559 c7 -9 10 -19 6 -22 -3 -4 -1 -7 5 -7 17 0 15 16 -5 31
-16 12 -17 12 -6 -2z"/>
<path d="M301 3504 c0 -11 3 -14 6 -6 3 7 2 16 -1 19 -3 4 -6 -2 -5 -13z"/>
<path d="M4436 3486 c3 -8 13 -17 21 -20 25 -10 23 -3 -3 17 -18 13 -22 14
-18 3z"/>
<path d="M291 3454 c0 -11 3 -14 6 -6 3 7 2 16 -1 19 -3 4 -6 -2 -5 -13z"/>
<path d="M4581 3454 c0 -11 3 -14 6 -6 3 7 2 16 -1 19 -3 4 -6 -2 -5 -13z"/>
<path d="M4562 3440 c0 -14 2 -19 5 -12 2 6 2 18 0 25 -3 6 -5 1 -5 -13z"/>
<path d="M2197 3433 c-4 -3 -7 -11 -7 -17 0 -6 5 -5 12 2 6 6 9 14 7 17 -3 3
-9 2 -12 -2z"/>
<path d="M4586 3395 c4 -8 8 -15 10 -15 2 0 4 7 4 15 0 8 -4 15 -10 15 -5 0
-7 -7 -4 -15z"/>
<path d="M2147 3327 c-67 -132 -102 -227 -134 -366 -27 -118 -27 -119 51 -173
38 -26 74 -48 80 -48 6 0 -18 20 -54 44 -95 63 -93 59 -70 157 38 153 77 264
137 383 19 37 33 70 31 72 -2 2 -20 -29 -41 -69z"/>
<path d="M4300 3346 c0 -2 8 -10 18 -17 15 -13 16 -12 3 4 -13 16 -21 21 -21
13z"/>
<path d="M4610 3341 c0 -6 4 -13 10 -16 6 -3 7 1 4 9 -7 18 -14 21 -14 7z"/>
<path d="M4671 3334 c0 -11 3 -14 6 -6 3 7 2 16 -1 19 -3 4 -6 -2 -5 -13z"/>
<path d="M4125 3310 c-3 -6 1 -7 9 -4 18 7 21 14 7 14 -6 0 -13 -4 -16 -10z"/>
<path d="M2661 3194 c0 -11 3 -14 6 -6 3 7 2 16 -1 19 -3 4 -6 -2 -5 -13z"/>
<path d="M491 3184 c0 -11 3 -14 6 -6 3 7 2 16 -1 19 -3 4 -6 -2 -5 -13z"/>
<path d="M4163 3186 c1 -11 9 -21 17 -23 10 -3 11 -2 4 4 -6 4 -14 15 -17 23
-5 11 -6 9 -4 -4z"/>
<path d="M3961 3164 c0 -11 3 -14 6 -6 3 7 2 16 -1 19 -3 4 -6 -2 -5 -13z"/>
<path d="M4288 3133 c7 -3 16 -2 19 1 4 3 -2 6 -13 5 -11 0 -14 -3 -6 -6z"/>
<path d="M2644 3020 c0 -52 1 -74 3 -47 2 26 2 68 0 95 -2 26 -3 4 -3 -48z"/>
<path d="M4293 3015 c0 -8 4 -12 9 -9 5 3 6 10 3 15 -9 13 -12 11 -12 -6z"/>
<path d="M4217 2999 c7 -7 15 -10 18 -7 3 3 -2 9 -12 12 -14 6 -15 5 -6 -5z"/>
<path d="M2651 2864 c0 -11 3 -14 6 -6 3 7 2 16 -1 19 -3 4 -6 -2 -5 -13z"/>
<path d="M3785 2855 c4 -16 17 -47 30 -67 29 -44 115 -134 115 -120 0 5 -7 15
-15 22 -8 7 -12 16 -9 21 3 5 0 8 -8 7 -7 -2 -12 5 -12 15 1 9 -2 18 -7 18 -5
1 -13 2 -19 3 -12 1 -44 46 -33 46 4 0 3 4 -2 8 -6 4 -18 23 -28 42 -17 35
-17 35 -12 5z"/>
<path d="M4120 2840 c8 -5 22 -9 30 -9 10 0 8 3 -5 9 -27 12 -43 12 -25 0z"/>
<path d="M2660 2832 c0 -26 23 -102 31 -102 11 0 12 -6 -11 60 -11 30 -19 49
-20 42z"/>
<path d="M4555 2759 c-4 -6 -5 -12 -2 -15 2 -3 7 2 10 11 7 17 1 20 -8 4z"/>
<path d="M2127 2699 c7 -7 15 -10 18 -7 3 3 -2 9 -12 12 -14 6 -15 5 -6 -5z"/>
<path d="M2163 2694 c0 -7 4 -11 8 -8 4 2 17 -7 28 -22 11 -14 24 -23 29 -20
5 3 20 -6 32 -19 13 -14 30 -25 37 -25 8 0 12 -4 9 -9 -4 -5 7 -12 24 -16 16
-4 33 -11 36 -16 3 -6 46 -30 95 -54 49 -24 87 -40 84 -35 -8 12 -95 60 -110
60 -8 0 -15 4 -17 9 -1 5 -10 11 -18 13 -8 2 -26 13 -40 26 -14 12 -33 25 -42
28 -10 3 -18 10 -18 15 0 5 -7 9 -15 9 -9 0 -26 9 -38 20 -37 35 -84 59 -84
44z"/>
<path d="M3869 2643 c-13 -16 -12 -17 4 -4 9 7 17 15 17 17 0 8 -8 3 -21 -13z"/>
<path d="M2716 2642 c-8 -13 74 -116 89 -112 4 1 10 -2 13 -6 4 -4 1 -4 -5 0
-7 4 -13 2 -13 -4 0 -6 -4 -8 -10 -5 -5 3 -10 1 -10 -5 0 -7 7 -9 16 -6 9 3
21 3 27 -1 7 -4 17 -8 22 -9 6 -1 19 -5 30 -9 11 -4 2 8 -20 26 -22 19 -48 42
-57 52 -10 9 -21 17 -26 17 -7 0 -36 40 -37 52 0 12 -13 19 -19 10z"/>
<path d="M3910 2625 c-7 -9 -11 -17 -9 -20 3 -2 10 5 17 15 14 24 10 26 -8 5z"/>
<path d="M4520 2610 c0 -11 2 -20 4 -20 2 0 6 9 9 20 3 11 1 20 -4 20 -5 0 -9
-9 -9 -20z"/>
<path d="M4451 2556 c-9 -11 -9 -16 1 -22 7 -4 10 -4 6 1 -4 4 -3 14 3 22 6 7
9 13 6 13 -2 0 -10 -6 -16 -14z"/>
<path d="M4421 2534 c0 -11 3 -14 6 -6 3 7 2 16 -1 19 -3 4 -6 -2 -5 -13z"/>
<path d="M2795 2479 c-4 -6 -4 -13 -1 -16 3 -4 6 -1 6 6 0 9 5 9 20 1 11 -6
18 -15 15 -21 -4 -5 -1 -9 5 -9 6 0 9 -3 7 -7 -3 -5 6 -9 20 -10 14 0 28 -6
32 -11 3 -6 23 -13 43 -17 33 -6 36 -10 28 -26 -6 -10 -17 -16 -24 -13 -8 3
-17 1 -21 -5 -3 -7 2 -11 14 -11 11 0 23 5 26 10 10 17 32 11 38 -10 5 -20 27
-28 27 -10 0 6 5 10 11 10 5 0 7 -4 4 -10 -3 -5 1 -10 10 -10 10 0 13 5 9 13
-6 8 -3 8 9 -1 9 -8 26 -11 39 -7 19 5 20 4 8 -5 -12 -9 -1 -10 45 -6 42 3 53
2 35 -4 -20 -7 -15 -8 23 -6 26 1 47 -1 47 -5 0 -4 10 -5 23 -3 17 3 18 3 4
-4 -9 -4 -48 -5 -85 -1 -37 3 -73 4 -79 1 -21 -7 -5 -21 17 -15 11 3 20 0 20
-6 0 -14 87 -5 154 16 29 9 66 13 93 10 29 -3 71 2 117 15 134 37 300 132 266
153 -8 5 -11 4 -6 -3 3 -6 -14 -24 -41 -42 -90 -61 -220 -100 -340 -102 -90
-1 -263 21 -263 33 0 5 -5 9 -11 9 -5 0 -8 -4 -5 -9 3 -4 -6 -6 -19 -3 -14 2
-22 8 -19 13 3 5 -1 6 -9 3 -17 -6 -177 64 -177 77 0 13 24 11 38 -3 6 -6 14
-9 18 -6 3 4 -8 14 -25 22 -36 19 -45 20 -35 4 5 -7 2 -9 -8 -5 -9 3 -21 0
-27 -6 -9 -9 -11 -7 -5 8 4 11 4 17 -1 13 -4 -4 -17 -1 -29 7 -24 18 -33 19
-41 4z"/>
<path d="M562 2440 c0 -14 2 -19 5 -12 2 6 2 18 0 25 -3 6 -5 1 -5 -13z"/>
<path d="M4475 2450 c-3 -5 -1 -10 4 -10 6 0 11 5 11 10 0 6 -2 10 -4 10 -3 0
-8 -4 -11 -10z"/>
<path d="M4457 2406 c-4 -10 -1 -13 9 -9 15 6 19 23 5 23 -5 0 -11 -7 -14 -14z"/>
<path d="M572 2360 c0 -14 2 -19 5 -12 2 6 2 18 0 25 -3 6 -5 1 -5 -13z"/>
<path d="M2900 2360 c-9 -6 -10 -10 -3 -10 6 0 15 5 18 10 8 12 4 12 -15 0z"/>
<path d="M4420 2336 c0 -2 7 -7 16 -10 8 -3 12 -2 9 4 -6 10 -25 14 -25 6z"/>
<path d="M581 2274 c0 -11 3 -14 6 -6 3 7 2 16 -1 19 -3 4 -6 -2 -5 -13z"/>
<path d="M4276 2194 c-8 -21 9 -25 21 -5 9 14 8 18 -3 18 -7 0 -15 -6 -18 -13z"/>
<path d="M4335 2160 c-3 -5 -1 -10 4 -10 6 0 11 5 11 10 0 6 -2 10 -4 10 -3 0
-8 -4 -11 -10z"/>
<path d="M4302 2089 c-12 -29 -19 -56 -16 -60 3 -5 1 -9 -4 -9 -5 0 -24 -27
-41 -60 -18 -33 -27 -60 -22 -60 6 0 11 7 11 15 0 9 7 18 15 21 8 4 13 9 10
13 -2 4 7 24 21 45 14 20 26 46 27 56 1 11 4 20 8 20 7 0 29 46 29 60 0 25
-18 5 -38 -41z"/>
<path d="M4336 1960 c-38 -64 -42 -75 -27 -65 14 8 74 115 68 121 -3 3 -21
-22 -41 -56z"/>
<path d="M295 1881 c-3 -5 -1 -12 5 -16 6 -4 8 -10 6 -14 -8 -12 13 -88 49
-184 74 -194 89 -229 93 -219 2 6 -2 21 -9 33 -6 13 -18 44 -25 69 -7 25 -22
69 -33 99 -11 30 -18 58 -15 62 2 4 -3 12 -12 17 -10 6 -15 16 -11 26 4 9 3
16 -2 16 -5 0 -12 20 -15 45 -4 24 -11 47 -17 50 -5 4 -7 11 -4 16 4 5 4 9 1
9 -3 0 -7 -4 -11 -9z"/>
<path d="M4149 1793 c-29 -54 -65 -123 -80 -154 -31 -62 -136 -196 -151 -191
-5 1 -7 -2 -3 -8 4 -6 1 -18 -7 -27 -11 -14 -11 -16 2 -11 8 2 20 13 25 24 6
10 19 30 30 42 11 13 28 33 38 45 33 39 211 366 204 374 -3 2 -29 -40 -58 -94z"/>
<path d="M4061 1868 c-1 -10 -8 -18 -17 -18 -8 0 -12 -5 -8 -11 9 -15 38 15
31 33 -4 9 -6 7 -6 -4z"/>
<path d="M4195 1750 c-4 -6 -11 -7 -17 -4 -7 4 -8 2 -4 -5 6 -9 11 -9 22 0 14
11 18 19 10 19 -3 0 -8 -5 -11 -10z"/>
<path d="M3961 1660 c-12 -22 -26 -38 -30 -36 -4 3 -12 -4 -19 -14 -7 -12 -8
-21 -2 -25 6 -3 10 1 10 9 0 15 35 32 58 28 6 -2 12 2 12 8 0 6 -4 8 -10 5
-17 -10 -11 7 6 20 12 8 14 16 7 29 -8 14 -13 10 -32 -24z"/>
<path d="M3935 1590 c-3 -5 -1 -10 4 -10 6 0 11 5 11 10 0 6 -2 10 -4 10 -3 0
-8 -4 -11 -10z"/>
<path d="M556 1557 c3 -10 9 -15 12 -12 3 3 0 11 -7 18 -10 9 -11 8 -5 -6z"/>
<path d="M609 1501 c9 -6 10 -11 2 -15 -6 -4 -11 -14 -11 -22 0 -9 5 -12 12
-8 7 4 8 3 4 -4 -12 -20 3 -32 29 -22 16 6 25 5 29 -3 3 -9 5 -9 5 0 1 6 -4
15 -9 18 -8 5 -7 12 2 23 12 16 11 16 -6 2 -18 -14 -19 -13 -13 4 6 14 4 17
-9 12 -12 -4 -15 -2 -10 9 4 11 -1 15 -17 15 -16 0 -18 -3 -8 -9z m46 -60 c-6
-5 -25 10 -25 20 0 5 6 4 14 -3 8 -7 12 -15 11 -17z"/>
<path d="M3820 1429 c0 -5 5 -7 10 -4 6 3 10 8 10 11 0 2 -4 4 -10 4 -5 0 -10
-5 -10 -11z"/>
<path d="M450 1421 c0 -6 4 -13 10 -16 6 -3 7 1 4 9 -7 18 -14 21 -14 7z"/>
<path d="M626 1395 c4 -8 7 -15 9 -15 1 0 8 7 15 15 10 13 9 15 -8 15 -15 0
-20 -5 -16 -15z"/>
<path d="M707 1390 c3 -11 9 -22 13 -25 5 -3 6 4 3 15 -3 11 -9 22 -13 25 -5
3 -6 -4 -3 -15z"/>
<path d="M753 1396 c1 -6 -4 -10 -10 -8 -25 4 -12 -9 17 -19 16 -6 27 -15 24
-20 -3 -5 0 -9 6 -9 7 0 9 7 6 16 -3 9 -6 18 -6 20 0 3 -6 2 -12 -2 -10 -6
-10 -4 0 8 10 13 9 16 -7 21 -12 3 -19 0 -18 -7z"/>
<path d="M655 1378 c-9 -14 -11 -24 -5 -26 6 -2 8 -7 5 -12 -6 -10 21 -7 31 3
4 4 0 7 -9 7 -20 0 -22 21 -5 38 7 7 9 12 6 12 -4 0 -14 -10 -23 -22z"/>
<path d="M470 1385 c0 -5 5 -17 10 -25 5 -8 10 -10 10 -5 0 6 -5 17 -10 25 -5
8 -10 11 -10 5z"/>
<path d="M520 1381 c0 -6 4 -13 10 -16 6 -3 7 1 4 9 -7 18 -14 21 -14 7z"/>
<path d="M3885 1380 c-3 -6 1 -7 9 -4 18 7 21 14 7 14 -6 0 -13 -4 -16 -10z"/>
<path d="M3749 1378 c-5 -18 -6 -38 -1 -34 7 8 12 36 6 36 -2 0 -4 -1 -5 -2z"/>
<path d="M678 1363 c7 -3 16 -2 19 1 4 3 -2 6 -13 5 -11 0 -14 -3 -6 -6z"/>
<path d="M807 1340 c-3 -14 -1 -18 6 -13 7 4 23 6 37 5 24 -3 24 -3 -4 12 -35
20 -33 20 -39 -4z"/>
<path d="M3845 1340 c-3 -5 -3 -10 1 -10 4 0 -7 -11 -25 -24 -18 -13 -28 -27
-23 -30 5 -3 23 10 41 28 19 19 28 36 23 40 -6 3 -13 2 -17 -4z"/>
<path d="M1009 1331 c7 -5 11 -13 8 -18 -3 -5 0 -10 8 -10 8 0 13 5 12 11 -2
13 -18 26 -32 26 -5 0 -4 -4 4 -9z"/>
<path d="M1056 1315 c-3 -10 1 -15 14 -15 10 0 22 -5 25 -10 4 -6 14 -9 23 -8
10 2 21 -7 27 -19 5 -13 14 -23 20 -23 5 0 3 -5 -5 -10 -11 -7 -12 -10 -2 -10
18 0 43 26 34 35 -4 4 -8 11 -8 16 -4 30 -6 32 -14 14 -8 -19 -9 -19 -9 3 -1
12 -5 22 -11 22 -5 0 -6 -7 -3 -17 5 -12 3 -14 -8 -7 -8 4 -20 9 -26 10 -7 1
-20 9 -29 18 -19 20 -20 20 -28 1z"/>
<path d="M1165 1320 c3 -5 8 -10 11 -10 2 0 4 5 4 10 0 6 -5 10 -11 10 -5 0
-7 -4 -4 -10z"/>
<path d="M3704 1319 c3 -16 34 -20 43 -7 4 7 -1 9 -15 6 -12 -3 -23 -2 -26 3
-2 5 -3 4 -2 -2z"/>
<path d="M500 1313 c0 -5 23 -55 50 -112 28 -58 48 -111 46 -118 -3 -7 1 -13
9 -13 13 0 19 -11 17 -32 -1 -3 5 -12 14 -19 20 -16 -10 59 -78 198 -47 96
-58 114 -58 96z"/>
<path d="M721 1303 c8 -13 17 -23 22 -23 4 0 6 -4 2 -9 -3 -5 0 -13 6 -16 5
-4 8 -13 5 -21 -3 -8 0 -11 9 -8 10 4 13 0 10 -13 -2 -12 2 -20 11 -20 10 0
11 4 3 14 -6 7 -8 13 -3 13 4 0 3 5 -4 12 -14 14 -16 32 -3 23 5 -3 13 0 17 6
5 9 -1 10 -20 5 -16 -4 -25 -3 -22 2 3 5 -6 20 -21 33 -25 23 -25 23 -12 2z"/>
<path d="M867 1307 c-8 -6 -6 -7 5 -3 10 3 23 -1 30 -8 8 -7 21 -12 31 -10 9
1 17 -2 17 -6 0 -8 58 -5 67 3 4 5 -77 21 -89 18 -5 0 -8 3 -8 8 0 12 -36 10
-53 -2z"/>
<path d="M756 1298 c3 -4 9 -8 15 -8 5 0 9 4 9 8 0 5 -7 9 -15 9 -8 0 -12 -4
-9 -9z"/>
<path d="M683 1283 c-10 -3 -9 -8 2 -19 8 -8 12 -21 9 -29 -4 -8 -1 -15 6 -15
6 0 9 4 6 9 -4 5 0 12 6 14 10 4 10 6 0 6 -7 1 -10 6 -7 11 3 6 1 10 -5 10 -6
0 -8 5 -5 10 7 11 6 11 -12 3z"/>
<path d="M3746 1232 l-19 -27 26 24 c28 26 32 31 20 31 -5 0 -17 -13 -27 -28z"/>
<path d="M812 1228 c7 -13 11 -27 10 -31 -1 -5 2 -6 8 -2 6 4 4 15 -6 31 -20
30 -29 32 -12 2z"/>
<path d="M3630 1235 c-7 -9 -10 -18 -7 -21 3 -3 10 4 17 15 13 25 8 27 -10 6z"/>
<path d="M1195 1220 c-3 -5 -1 -10 4 -10 6 0 11 5 11 10 0 6 -2 10 -4 10 -3 0
-8 -4 -11 -10z"/>
<path d="M3981 1214 c0 -11 3 -14 6 -6 3 7 2 16 -1 19 -3 4 -6 -2 -5 -13z"/>
<path d="M3700 1209 c0 -5 5 -7 10 -4 6 3 10 8 10 11 0 2 -4 4 -10 4 -5 0 -10
-5 -10 -11z"/>
<path d="M710 1195 c0 -8 2 -15 4 -15 2 0 6 7 10 15 3 8 1 15 -4 15 -6 0 -10
-7 -10 -15z"/>
<path d="M1220 1199 c0 -5 -4 -8 -9 -5 -14 9 -20 -16 -9 -38 8 -15 12 -16 19
-5 7 11 9 10 9 -4 0 -10 5 -15 10 -12 7 4 5 14 -4 27 -8 11 -12 27 -9 34 3 8
2 14 -1 14 -3 0 -6 -5 -6 -11z m0 -29 c0 -5 -2 -10 -4 -10 -3 0 -8 5 -11 10
-3 6 -1 10 4 10 6 0 11 -4 11 -10z"/>
<path d="M3520 1201 c0 -5 -19 -18 -42 -30 -24 -12 -36 -21 -28 -21 20 0 80
37 80 50 0 5 -2 10 -5 10 -3 0 -5 -4 -5 -9z"/>
<path d="M3674 1185 c-4 -8 -10 -12 -15 -9 -5 3 -6 -2 -2 -12 5 -15 7 -15 15
0 5 9 13 14 19 11 5 -3 6 1 3 9 -8 20 -13 20 -20 1z"/>
<path d="M1078 1153 c6 -2 18 -2 25 0 6 3 1 5 -13 5 -14 0 -19 -2 -12 -5z"/>
<path d="M3636 1123 c-6 -14 -5 -15 5 -6 7 7 10 15 7 18 -3 3 -9 -2 -12 -12z"/>
<path d="M890 1126 c0 -2 8 -10 18 -17 15 -13 16 -12 3 4 -13 16 -21 21 -21
13z"/>
<path d="M1161 1110 c14 -31 19 -36 19 -24 0 6 -7 19 -16 30 -14 18 -14 18 -3
-6z"/>
<path d="M1242 1123 c-6 -2 -9 -10 -5 -16 4 -7 8 -15 9 -19 1 -5 3 -10 4 -13
1 -3 3 -10 4 -17 0 -6 7 -12 14 -14 7 -1 8 0 3 2 -6 3 -7 12 -4 20 3 8 -1 14
-8 14 -11 0 -11 3 1 10 9 6 11 10 3 10 -7 0 -10 7 -7 15 6 16 6 16 -14 8z"/>
<path d="M874 1082 c0 -10 6 -19 13 -19 8 0 9 6 2 19 -5 10 -11 18 -12 18 -2
0 -3 -8 -3 -18z"/>
<path d="M3336 1082 c-3 -4 4 -9 15 -9 23 -2 25 3 4 10 -8 4 -16 3 -19 -1z"/>
<path d="M670 1066 c0 -2 8 -10 18 -17 15 -13 16 -12 3 4 -13 16 -21 21 -21
13z"/>
<path d="M551 1038 c-14 -23 -14 -23 8 -4 22 20 25 26 13 26 -4 0 -13 -10 -21
-22z"/>
<path d="M3469 1039 l-24 -20 28 17 c15 9 27 18 27 20 0 8 -8 4 -31 -17z"/>
<path d="M934 1025 c10 -8 16 -20 14 -27 -3 -7 5 -21 18 -31 13 -10 24 -14 24
-9 0 6 -7 12 -15 16 -8 3 -15 14 -15 24 0 20 -18 42 -34 42 -6 0 -3 -7 8 -15z"/>
<path d="M1275 1020 c-3 -5 -1 -10 4 -10 6 0 11 5 11 10 0 6 -2 10 -4 10 -3 0
-8 -4 -11 -10z"/>
<path d="M1090 1010 c0 -6 7 -10 15 -10 8 0 15 2 15 4 0 2 -7 6 -15 10 -8 3
-15 1 -15 -4z"/>
<path d="M1200 1011 c0 -6 4 -13 10 -16 6 -3 7 1 4 9 -7 18 -14 21 -14 7z"/>
<path d="M3485 1010 c-16 -7 -17 -9 -3 -9 9 -1 20 4 23 9 7 11 7 11 -20 0z"/>
<path d="M640 996 c0 -2 7 -9 15 -16 13 -11 14 -10 9 4 -5 14 -24 23 -24 12z"/>
<path d="M1282 993 c-10 -4 -10 -8 -1 -19 6 -8 8 -14 3 -14 -4 0 1 -6 12 -14
18 -14 18 -15 2 -21 -22 -9 -23 -22 -3 -41 16 -16 22 -5 6 12 -6 5 -4 14 6 23
12 11 14 11 12 0 -4 -21 11 -60 21 -54 5 3 11 1 15 -5 3 -5 -2 -10 -12 -11
-14 0 -14 -2 5 -9 12 -5 22 -16 22 -24 0 -12 -5 -14 -26 -6 -16 7 -23 7 -19 0
3 -6 1 -10 -6 -10 -8 0 -8 -4 1 -15 7 -8 20 -14 29 -14 13 1 13 2 -1 6 -10 2
-18 9 -18 14 0 11 45 7 56 -4 4 -4 12 -7 18 -7 6 0 3 5 -6 11 -10 5 -18 15
-18 20 0 6 6 7 13 3 9 -6 9 -5 0 7 -9 11 -9 19 -2 26 8 8 7 13 -2 18 -8 5 -10
4 -5 -3 10 -17 -9 -15 -23 1 -6 8 -7 18 -3 22 4 5 2 5 -4 2 -7 -4 -15 0 -18 9
-4 10 -2 13 7 8 13 -8 -7 18 -36 49 -10 10 -16 25 -13 33 3 8 4 14 3 13 -1 0
-8 -3 -15 -6z"/>
<path d="M868 964 c-4 -6 6 -24 23 -40 19 -18 28 -23 24 -11 -4 9 -11 17 -17
17 -5 0 -6 5 -2 12 4 6 3 8 -4 4 -6 -3 -12 2 -14 11 -2 11 -6 14 -10 7z"/>
<path d="M1190 966 c0 -2 9 -6 20 -9 11 -3 18 -1 14 4 -5 9 -34 13 -34 5z"/>
<path d="M3236 955 c-11 -8 -15 -15 -9 -15 6 0 16 7 23 15 16 19 11 19 -14 0z"/>
<path d="M1000 952 c0 -5 15 -19 33 -32 l32 -23 -29 31 c-31 34 -36 37 -36 24z"/>
<path d="M686 927 c3 -10 9 -15 12 -12 3 3 0 11 -7 18 -10 9 -11 8 -5 -6z"/>
<path d="M1170 930 c-8 -5 -12 -11 -10 -14 3 -2 14 2 24 10 22 15 10 19 -14 4z"/>
<path d="M3469 923 c-13 -17 -13 -17 6 -3 11 8 22 16 24 17 2 2 0 3 -6 3 -6 0
-17 -8 -24 -17z"/>
<path d="M1210 919 c0 -5 -4 -8 -9 -4 -5 3 -13 0 -17 -7 -4 -7 -4 -10 1 -6 4
4 16 3 25 -2 19 -10 47 10 33 23 -10 11 -33 8 -33 -4z"/>
<path d="M1261 914 c0 -11 3 -14 6 -6 3 7 2 16 -1 19 -3 4 -6 -2 -5 -13z"/>
<path d="M4432 905 c0 -16 2 -22 5 -12 2 9 2 23 0 30 -3 6 -5 -1 -5 -18z"/>
<path d="M1120 917 c0 -3 12 -12 26 -22 15 -9 23 -12 20 -6 -7 11 -46 35 -46
28z"/>
<path d="M3425 910 c-3 -5 -1 -10 4 -10 6 0 11 5 11 10 0 6 -2 10 -4 10 -3 0
-8 -4 -11 -10z"/>
<path d="M945 891 c-3 -5 -2 -12 3 -15 5 -3 9 1 9 9 0 17 -3 19 -12 6z"/>
<path d="M1229 884 c-27 -33 -16 -52 19 -30 7 4 16 5 19 2 4 -3 1 -6 -5 -6 -7
0 -12 -4 -12 -10 0 -5 3 -9 8 -7 4 1 8 -1 10 -5 5 -17 1 -20 -12 -9 -9 7 -17
8 -20 2 -3 -5 8 -14 26 -20 17 -6 28 -8 25 -4 -4 3 3 18 15 32 13 14 15 20 6
12 -21 -16 -44 -5 -29 13 13 15 4 27 -14 20 -7 -3 -16 0 -21 7 -5 8 -3 10 6 4
9 -5 11 -4 6 3 -9 15 -11 15 -27 -4z"/>
<path d="M3062 888 c-7 -9 -6 -17 4 -26 12 -11 14 -9 14 13 0 28 -3 30 -18 13z"/>
<path d="M1060 885 c0 -3 19 -17 43 -31 23 -15 45 -32 49 -38 5 -6 8 -7 8 -1
-1 16 -26 45 -33 38 -4 -3 -7 -1 -7 6 0 7 -4 10 -9 7 -5 -3 -14 1 -21 9 -12
14 -30 20 -30 10z"/>
<path d="M2517 873 c-34 -18 -98 -25 -112 -13 -6 5 -17 5 -25 0 -24 -15 11
-22 85 -18 44 2 65 -1 65 -9 0 -7 9 -9 22 -5 l22 5 -22 8 c-25 9 -27 20 -10
37 15 15 11 14 -25 -5z"/>
<path d="M2624 865 c-4 -11 -11 -12 -24 -5 -18 10 -33 3 -24 -11 7 -12 71 -11
79 1 3 6 -1 7 -9 4 -9 -3 -16 -2 -16 4 0 6 6 13 13 15 9 4 9 6 -1 6 -7 1 -15
-6 -18 -14z"/>
<path d="M2976 871 c-4 -5 3 -7 14 -4 23 6 26 13 6 13 -8 0 -17 -4 -20 -9z"/>
<path d="M2925 850 c3 -5 -3 -11 -12 -13 -15 -4 -15 -5 2 -6 11 0 26 3 33 8
10 6 9 10 -7 14 -12 3 -19 1 -16 -3z"/>
<path d="M3339 843 c-13 -15 -12 -15 9 -4 23 12 28 21 13 21 -5 0 -15 -7 -22
-17z"/>
<path d="M4422 830 c0 -14 2 -19 5 -12 2 6 2 18 0 25 -3 6 -5 1 -5 -13z"/>
<path d="M1078 833 c7 -3 16 -2 19 1 4 3 -2 6 -13 5 -11 0 -14 -3 -6 -6z"/>
<path d="M3290 830 c-13 -8 -13 -10 2 -10 9 0 20 5 23 10 8 13 -5 13 -25 0z"/>
<path d="M1434 811 c11 -11 23 -21 28 -21 14 0 -1 19 -25 31 -22 12 -22 12 -3
-10z"/>
<path d="M2468 823 c7 -3 16 -2 19 1 4 3 -2 6 -13 5 -11 0 -14 -3 -6 -6z"/>
<path d="M2586 821 c-3 -4 6 -6 19 -3 14 2 25 6 25 8 0 8 -39 4 -44 -5z"/>
<path d="M1170 808 c0 -9 5 -20 10 -23 13 -8 13 5 0 25 -8 13 -10 13 -10 -2z"/>
<path d="M985 800 c3 -5 8 -10 11 -10 2 0 4 5 4 10 0 6 -5 10 -11 10 -5 0 -7
-4 -4 -10z"/>
<path d="M2653 803 c9 -2 25 -2 35 0 9 3 1 5 -18 5 -19 0 -27 -2 -17 -5z"/>
<path d="M3224 795 c-10 -8 -14 -15 -8 -15 6 0 17 7 24 15 16 19 9 19 -16 0z"/>
<path d="M1130 794 c0 -6 7 -17 15 -24 8 -7 15 -9 15 -5 0 5 9 0 20 -10 11
-10 20 -14 20 -8 0 5 -12 16 -27 24 -16 8 -31 18 -35 24 -5 6 -8 6 -8 -1z"/>
<path d="M1208 793 c6 -2 10 -9 7 -14 -4 -5 1 -6 9 -3 20 8 11 24 -12 23 -11
0 -12 -2 -4 -6z"/>
<path d="M2614 785 c8 -8 18 -15 22 -15 3 0 1 7 -6 15 -7 8 -17 15 -22 15 -5
0 -3 -7 6 -15z"/>
<path d="M4411 784 c0 -11 3 -14 6 -6 3 7 2 16 -1 19 -3 4 -6 -2 -5 -13z"/>
<path d="M1251 782 c3 -22 -3 -32 -21 -32 -11 0 -20 -4 -20 -10 0 -6 9 -6 24
0 27 10 44 9 66 -5 13 -7 13 -6 2 7 -10 13 -10 17 0 20 7 3 -2 10 -20 16 -17
6 -31 8 -31 4z m29 -22 c0 -5 -2 -10 -4 -10 -3 0 -8 5 -11 10 -3 6 -1 10 4 10
6 0 11 -4 11 -10z"/>
<path d="M1429 768 c-11 -8 -10 -9 4 -4 15 5 21 -3 19 -25 -1 -3 6 -6 13 -6
11 0 12 4 4 14 -18 21 -3 15 53 -20 29 -19 59 -32 66 -29 7 2 22 -4 33 -14 10
-9 19 -14 19 -10 0 3 16 0 35 -8 20 -9 37 -11 40 -5 4 5 -1 9 -10 9 -8 0 -18
7 -21 15 -4 8 -12 15 -20 15 -8 0 -14 5 -14 11 0 6 -9 8 -20 4 -12 -4 -26 0
-36 9 -9 9 -19 14 -24 11 -11 -7 -91 25 -86 34 7 10 -40 10 -55 -1z"/>
<path d="M2368 773 c6 -2 18 -2 25 0 6 3 1 5 -13 5 -14 0 -19 -2 -12 -5z"/>
<path d="M2418 773 c7 -3 16 -2 19 1 4 3 -2 6 -13 5 -11 0 -14 -3 -6 -6z"/>
<path d="M899 756 c9 -11 4 -13 -28 -12 -23 0 -37 5 -34 11 3 5 0 4 -8 -3 -12
-11 -12 -15 2 -22 9 -5 23 -20 32 -33 12 -19 13 -24 2 -24 -8 0 -13 3 -13 6 3
15 -16 41 -30 41 -13 0 -13 -2 0 -17 8 -10 29 -44 47 -76 18 -31 36 -55 41
-52 5 3 12 0 16 -6 4 -8 3 -9 -4 -5 -7 4 -12 3 -12 -3 0 -5 4 -13 10 -16 5 -3
37 -47 72 -96 34 -50 74 -100 90 -112 15 -11 28 -27 28 -34 0 -7 4 -13 10 -13
5 0 22 -19 39 -42 39 -56 82 -103 158 -172 35 -31 62 -57 60 -58 -1 -1 -159
-5 -352 -8 -226 -3 -47 -5 508 -6 472 -1 855 1 852 4 -3 4 -23 5 -43 4 -56 -5
-180 24 -320 74 -129 46 -160 60 -107 50 17 -3 23 -3 15 0 -8 4 -28 13 -44 21
-19 10 -26 11 -21 3 5 -8 3 -11 -6 -8 -8 3 -13 10 -12 16 2 7 -4 9 -14 5 -10
-4 -14 -2 -10 4 5 7 -1 9 -15 5 -16 -4 -19 -2 -13 8 6 10 4 12 -8 7 -8 -3 -21
1 -27 9 -7 8 -17 14 -22 14 -5 0 -29 16 -52 35 -44 35 -63 45 -50 23 4 -7 3
-8 -5 -4 -6 4 -8 12 -5 18 5 7 1 9 -9 5 -9 -3 -19 -1 -23 5 -4 7 -3 8 4 4 7
-4 12 -3 12 2 0 6 -7 13 -16 16 -23 9 -26 8 -18 -6 4 -8 3 -10 -2 -5 -5 5 -9
14 -9 20 0 5 -6 12 -14 15 -9 3 -11 0 -6 -8 5 -9 4 -11 -4 -6 -6 4 -9 12 -6
17 4 5 -4 13 -17 18 -19 7 -172 115 -203 143 -5 5 15 0 45 -10 65 -22 143 -36
120 -22 -13 9 -13 10 1 10 8 0 19 -4 25 -9 5 -6 30 -6 64 1 65 12 105 31 49
24 -43 -6 -229 20 -243 34 -6 6 -15 10 -20 10 -6 0 -4 -5 4 -10 9 -6 10 -10 3
-10 -6 0 -15 5 -18 10 -5 8 -11 8 -20 0 -10 -8 -13 -6 -11 7 1 22 -35 25 -42
4 -3 -9 0 -11 8 -6 9 5 11 4 6 -4 -10 -15 -29 -3 -22 14 3 8 0 16 -7 19 -9 3
-9 5 1 5 6 1 12 5 12 9 0 11 -33 11 -41 0 -8 -13 -40 2 -32 16 4 6 -2 4 -12
-4 -10 -8 -16 -10 -12 -4 3 6 -3 16 -13 24 -10 8 -17 16 -15 20 2 3 -5 6 -15
6 -10 0 -16 -4 -14 -8 7 -11 -4 -10 -27 3 -11 5 -17 14 -14 19 3 5 0 12 -6 16
-8 4 -9 3 -5 -4 4 -7 2 -12 -3 -12 -6 0 -11 5 -11 11 0 6 -7 8 -16 5 -14 -5
-15 -4 -5 8 10 12 8 14 -13 12 -28 -4 -74 23 -58 33 6 3 -8 14 -30 23 -28 12
-37 13 -29 4z m-19 -116 c6 -11 8 -20 6 -20 -3 0 -10 9 -16 20 -6 11 -8 20 -6
20 3 0 10 -9 16 -20z"/>
<path d="M1345 745 c-40 -19 -16 -19 26 0 19 8 27 14 19 14 -8 0 -28 -7 -45
-14z"/>
<path d="M2970 746 c-14 -8 -29 -12 -34 -9 -5 4 -6 1 -2 -5 5 -9 16 -8 39 4
37 19 44 24 31 24 -5 -1 -20 -7 -34 -14z"/>
<path d="M4401 744 c0 -11 3 -14 6 -6 3 7 2 16 -1 19 -3 4 -6 -2 -5 -13z"/>
<path d="M1410 740 c-13 -8 -12 -10 3 -10 9 0 17 5 17 10 0 12 -1 12 -20 0z"/>
<path d="M1370 730 c-9 -6 -10 -10 -3 -10 6 0 15 5 18 10 8 12 4 12 -15 0z"/>
<path d="M3119 723 c-13 -17 -13 -17 6 -3 11 8 22 16 24 17 2 2 0 3 -6 3 -6 0
-17 -8 -24 -17z"/>
<path d="M1090 726 c0 -2 7 -7 16 -10 8 -3 12 -2 9 4 -6 10 -25 14 -25 6z"/>
<path d="M1290 713 c8 -3 21 -11 29 -17 11 -8 13 -8 8 1 -4 6 -1 14 5 16 7 3
-3 5 -22 5 -19 0 -28 -2 -20 -5z"/>
<path d="M1410 706 c24 -12 60 -2 45 13 -3 3 -10 -1 -15 -9 -7 -10 -10 -11
-10 -2 0 6 -10 12 -22 12 -23 0 -23 -1 2 -14z"/>
<path d="M4392 700 c0 -14 2 -19 5 -12 2 6 2 18 0 25 -3 6 -5 1 -5 -13z"/>
<path d="M1470 700 c0 -6 7 -10 15 -10 8 0 15 2 15 4 0 2 -7 6 -15 10 -8 3
-15 1 -15 -4z"/>
<path d="M1520 700 c12 -8 12 -10 1 -10 -8 0 -12 -2 -9 -5 3 -3 13 -2 22 1 14
5 15 9 4 15 -7 5 -17 9 -23 9 -5 0 -3 -5 5 -10z"/>
<path d="M3078 703 c7 -3 16 -2 19 1 4 3 -2 6 -13 5 -11 0 -14 -3 -6 -6z"/>
<path d="M1350 690 c8 -5 22 -9 30 -9 10 0 8 3 -5 9 -27 12 -43 12 -25 0z"/>
<path d="M2796 681 c-3 -4 -17 -6 -31 -3 -14 2 -25 0 -25 -7 0 -6 7 -8 17 -4
11 4 14 3 9 -5 -4 -7 -2 -12 6 -12 7 0 19 9 26 20 7 11 10 20 8 20 -3 0 -7 -4
-10 -9z"/>
<path d="M3010 675 c-17 -10 -20 -14 -9 -15 9 0 22 7 29 15 15 18 12 18 -20 0z"/>
<path d="M1413 673 c9 -2 23 -2 30 0 6 3 -1 5 -18 5 -16 0 -22 -2 -12 -5z"/>
<path d="M1514 672 c-10 -2 -23 -9 -29 -14 -7 -8 -6 -9 3 -4 6 4 12 2 12 -3 0
-6 5 -11 11 -11 5 0 7 6 3 13 -6 9 -5 9 7 0 16 -13 59 -14 59 -1 0 4 -6 8 -12
8 -9 0 -9 3 1 9 14 9 -11 10 -55 3z"/>
<path d="M1603 655 c0 -8 4 -15 9 -15 4 0 8 4 8 9 0 6 -4 12 -8 15 -5 3 -9 -1
-9 -9z"/>
<path d="M1731 663 c-1 -6 -13 -16 -28 -21 -16 -6 -21 -11 -13 -12 10 -1 9 -4
-5 -10 -15 -7 -16 -9 -4 -9 9 -1 22 6 29 14 18 22 30 18 25 -6 -4 -22 -4 -22
20 1 26 24 33 36 15 25 -5 -3 -10 -1 -10 5 0 6 -4 9 -9 6 -5 -4 -12 0 -14 6
-4 9 -6 9 -6 1z"/>
<path d="M2655 651 c-6 -5 -19 -12 -30 -15 -11 -3 -2 -3 19 -1 43 5 75 25 40
25 -11 0 -24 -4 -29 -9z"/>
<path d="M4371 624 c0 -11 3 -14 6 -6 3 7 2 16 -1 19 -3 4 -6 -2 -5 -13z"/>
<path d="M1596 621 c-4 -5 3 -7 14 -4 23 6 26 13 6 13 -8 0 -17 -4 -20 -9z"/>
<path d="M2334 605 c15 -16 50 -10 40 7 -4 6 -10 5 -15 -3 -6 -10 -9 -11 -9
-1 0 6 -7 12 -16 12 -14 0 -14 -2 0 -15z"/>
<path d="M2418 613 c6 -2 18 -2 25 0 6 3 1 5 -13 5 -14 0 -19 -2 -12 -5z"/>
<path d="M2452 604 c-7 -8 -8 -14 -3 -14 10 0 25 19 20 25 -2 1 -10 -3 -17
-11z"/>
<path d="M1595 590 c-3 -5 -2 -10 4 -10 5 0 13 5 16 10 3 6 2 10 -4 10 -5 0
-13 -4 -16 -10z"/>
<path d="M2496 588 c3 -4 14 -8 24 -8 10 0 21 4 24 8 3 5 -8 8 -24 8 -16 0
-27 -3 -24 -8z"/>
<path d="M94 558 l-29 -33 33 29 c30 28 37 36 29 36 -2 0 -16 -15 -33 -32z"/>
<path d="M1300 580 c8 -5 20 -10 25 -10 6 0 3 5 -5 10 -8 5 -19 10 -25 10 -5
0 -3 -5 5 -10z"/>
<path d="M1408 583 c7 -3 16 -2 19 1 4 3 -2 6 -13 5 -11 0 -14 -3 -6 -6z"/>
<path d="M1480 570 c-12 -7 -10 -9 7 -7 12 0 19 5 17 9 -6 10 -6 10 -24 -2z"/>
<path d="M1520 569 c0 -5 5 -7 10 -4 6 3 10 8 10 11 0 2 -4 4 -10 4 -5 0 -10
-5 -10 -11z"/>
<path d="M4325 500 c-9 -28 -15 -53 -13 -56 3 -2 12 19 22 47 9 29 14 54 12
56 -2 2 -12 -19 -21 -47z"/>
<path d="M4164 188 c-46 -78 -46 -78 -41 -78 3 0 18 21 33 47 15 27 34 58 42
71 8 12 12 22 9 22 -3 0 -22 -28 -43 -62z"/>
<path d="M35 9 c-22 -3 74 -7 213 -8 138 0 252 2 252 7 0 9 -410 10 -465 1z"/>
<path d="M510 8 c0 -5 37 -8 82 -8 45 0 79 2 77 4 -8 8 -159 11 -159 4z"/>
</g>
</svg>
